<?xml version="1.0" encoding="utf-8"?>
<!-- Generator: Adobe Illustrator 27.5.0, SVG Export Plug-In . SVG Version: 6.00 Build 0)  -->
<svg version="1.1" id="Layer_1" xmlns="http://www.w3.org/2000/svg" xmlns:xlink="http://www.w3.org/1999/xlink" x="0px" y="0px"
	 viewBox="0 0 377.347 486.031" style="enable-background:new 0 0 377.347 486.031;" xml:space="preserve">
<g>
	<path style="fill:#452F13;" d="M364.263,273.173c-3.909-8.329-8.03-16.563-12.123-24.803
		c-8.474-17.058-17.417-34.152-21.536-52.876c-2.025-9.205-3.226-18.56-4.549-27.884c-1.285-9.064-2.397-18.4-5.243-27.135
		c-4.506-13.829-13.815-25.138-26.139-32.759c-12.182-7.534-26.255-11.541-40.245-14.09c-18.754-3.417-38.252-3.456-57.179-1.628
		c-19.415,1.875-38.595,5.938-57.259,11.561c-9.145,2.755-18.175,5.893-27.07,9.371c-8.205,3.208-16.427,6.5-23.918,11.189
		c-7.368,4.613-14.089,10.4-19.279,17.406c-2.482,3.35-4.777,7.014-6.266,10.924c-0.23,0.604-0.437,1.216-0.633,1.831
		c0.154,2.887,0.38,5.775,0.581,8.674c-0.033,2.894,0.005,5.793-0.148,8.683c-0.463,8.729-1.158,17.497-2.622,26.13
		c-2.774,16.361-8.322,32.184-17.141,46.51c-8.054,13.083-17.897,25.144-24.539,38.999c-6.41,13.371-8.522,27.916-3.681,42.086
		c5.403,15.814,16.901,27.731,31.107,36.964c1.165,0.757,3.2-1.005,2.051-2.049c-8.36-7.593-10.657-18.518-11.211-29.109
		c0.993,1.664,2.055,3.292,3.159,4.885c9.735,14.051,26.48,28.084,23.917,46.615c-0.627,4.534-2.709,8.788-7.444,10.452
		c-4.037,1.419-8.515,1.23-12.74,1.58c-0.883,0.073-2.388,1.45-0.996,1.974c13.301,5.014,29.089,6.487,40.654-3.043
		c6.963-5.738,11.688-14.01,13.882-22.665c-0.297,6.302-2.067,12.385-6.099,17.61c-0.458,0.594-0.145,1.609,0.751,1.535
		c8.651-0.716,13.541-8.825,16.055-15.892c0.768-2.159,1.386-4.388,1.845-6.645c0.672,1.373,1.396,2.722,2.165,4.044
		c3.213,5.523,7.652,10.159,13.129,13.734c6.285,4.103,13.437,6.78,20.249,9.958c1.159,0.541,3.546-0.769,2.579-2.109
		c-3.537-4.902-8.056-9.097-11.419-14.115c-2.22-3.312-3.538-6.902-4.594-10.587c2.293,3.927,4.471,7.926,7.158,11.622
		c4.381,6.026,9.989,11.159,16.907,14.459c10.454,4.988,22.723,6.158,34.197,4.034c5.673,0.282,11.395-0.214,16.724-2.102
		c6.934-2.456,13.347-7.033,18.791-12.081c-0.389,2.557-0.114,5.089,1.339,7.34c0.614,0.951,2.101,0.254,2.692-0.27
		c5.92-5.244,11.899-10.556,19.242-13.952c7.642-3.534,15.815-5.828,23.923-8.165c13.56-3.909,27.701-8.138,39.783-15.426
		c-0.674,0.812-1.37,1.607-2.093,2.381c-5.142,5.503-11.392,10.449-17.926,14.384c-0.462,0.278-1.166,1.389-0.369,1.762
		c5.047,2.365,11.603-0.576,16.289-2.519c6.667-2.764,12.781-6.226,18.33-10.722c11.022-8.932,20.643-20.542,26.014-33.408
		c0.949-2.274,1.735-4.603,2.351-6.969c0.4,6.052-0.591,12.257-2.148,18.027c-2.596,9.624-6.783,19.26-12.954,27.322
		c-0.826,1.079,0.51,2.002,1.587,1.501c10.99-5.112,19.604-13.264,24.425-24.019c4.717-10.524,5.633-22.311,4.873-33.617
		C370.649,296.179,368.16,284.48,364.263,273.173z"/>
	<path style="opacity:0.56;fill:#523929;" d="M264.064,372.095c3.859-4.418,7.379-9.132,10.548-13.995
		c6.266-9.617,11.919-20.637,13.225-32.197c0.072-0.639,1.119-0.924,1.233-0.167c0.008,0.056,0.012,0.112,0.021,0.167
		c0.001,0,0.001,0,0.002,0c0,0.003-0.001,0.005-0.001,0.008c1.43,9.845-1.196,19.912-6.652,28.159
		c1.031-0.412,2.02-0.919,2.966-1.52c7.029-4.462,11.965-12.099,16.272-19.032c4.86-7.823,9.527-15.825,13.812-23.976
		c4.974-9.462,9.291-19.333,11.868-29.736c2.714-10.955,3.443-22.471,3.154-33.726c-0.296-11.517-1.87-22.97-4.36-34.211
		c-2.395-10.817-5.857-21.356-8.367-32.142c-2.146-9.22-3.058-18.37-2.465-27.815c0.406-6.455,1.135-12.903,2.294-19.27
		c-5.082-10.285-13.034-18.798-22.939-24.925c-12.182-7.534-26.255-11.541-40.245-14.09c-18.754-3.417-38.252-3.456-57.179-1.629
		c-19.415,1.875-38.595,5.938-57.259,11.561c-9.145,2.756-18.175,5.893-27.071,9.371c-8.205,3.208-16.427,6.5-23.918,11.189
		c-4.76,2.98-9.24,6.457-13.221,10.428c-4.418,12.687-7.833,25.728-9.86,39.011c-2.672,17.502-2.858,35.446,0.215,52.909
		c1.561,8.871,3.945,17.594,7.131,26.019c2.049,5.419,4.341,10.744,6.455,16.137c4.097,10.453,8.145,21.744,7.639,33.144
		c-0.228,5.151-1.545,10.267-4.358,14.628c-2.726,4.225-6.619,7.436-10.963,9.869c10.604-1.071,17.697-10.431,21.131-20.108
		c0.267-0.753,1.435-0.452,1.21,0.334c-2.693,9.391-6.013,18.742-7.156,28.492c-1.089,9.29,0.367,18.338,5.531,26.125
		c0.36-5.181-0.128-10.409,0.225-15.594c0.36-5.291,1.486-11.069,5.789-14.618c0.366-0.302,1.144-0.156,1.071,0.444
		c-1.056,8.759,1.151,17.445,5.213,25.192c8.119,15.483,22.413,27.514,37.368,36.112c1.583,0.91,3.193,1.779,4.817,2.619
		c0.938-0.35,1.711-1.199,1.087-2.064c-3.536-4.902-8.056-9.097-11.419-14.115c-2.22-3.313-3.538-6.902-4.594-10.587
		c2.293,3.927,4.471,7.927,7.158,11.622c4.381,6.026,9.989,11.159,16.907,14.459c10.454,4.988,22.723,6.158,34.197,4.034
		c5.673,0.282,11.395-0.214,16.724-2.102c6.934-2.456,13.347-7.034,18.791-12.081c-0.389,2.557-0.114,5.089,1.339,7.34
		c0.613,0.951,2.101,0.254,2.692-0.27c5.921-5.244,11.899-10.556,19.242-13.952C254.107,375.355,259.054,373.64,264.064,372.095z"/>
	<g>
		<g>
			<path style="fill:#EFB291;" d="M264.497,371.933c0,0-27.629-13.608-37.938-22.681c-10.309-9.072-7.423-58.969-7.423-58.969
				h-20.206h-7.01h-20.206c0,0,2.887,49.897-7.423,58.969s-37.938,22.681-37.938,22.681s22.531,37.323,43.754,57.023
				c0,0,5.496,8.521,25.319,8.132c19.823,0.389,25.319-8.132,25.319-8.132C241.966,409.256,264.497,371.933,264.497,371.933z"/>
			<path style="opacity:0.64;fill:#EB936D;" d="M264.497,371.933c0,0-27.629-13.608-37.938-22.681
				c-10.309-9.072-7.423-58.969-7.423-58.969h-20.206h-7.01h-20.206c0,0,2.887,49.897-7.423,58.969s-37.938,22.681-37.938,22.681
				s22.531,37.323,43.754,57.023c0,0,5.496,8.521,25.319,8.132c19.823,0.389,25.319-8.132,25.319-8.132
				C241.966,409.256,264.497,371.933,264.497,371.933z"/>
			<path style="opacity:0.44;fill:#EB936D;" d="M172.074,307.822c1.87,0.882,3.725,1.871,5.704,2.488
				c4.426,1.38,9.002,2.18,13.607,2.657c4.287,0.445,8.576,0.677,12.876,0.267c4.096-0.391,8.141-1.311,11.99-2.766
				c0.859-0.325,1.704-0.681,2.54-1.059c-0.147-10.622,0.344-19.126,0.344-19.126h-47.423
				C171.713,290.283,172.156,297.952,172.074,307.822z"/>
			<path style="opacity:0.44;fill:#EB936D;" d="M226.558,349.252c-2.434-2.142-4.132-6.559-5.306-12.058
				c-4.834,1.751-9.463,4.099-13.58,7.189c-4.995,3.749-9.084,8.603-11.77,14.251c-0.104,0.219-0.445,0.149-0.502-0.066
				c-0.728-2.716-1.95-5.268-3.543-7.582c-2.89-4.198-6.915-7.548-11.32-10.06c-3.379-1.927-7.034-3.395-10.816-4.328
				c-1.178,5.774-2.909,10.435-5.43,12.653c-10.309,9.072-37.938,22.681-37.938,22.681s22.531,37.323,43.754,57.023
				c0,0,5.496,8.521,25.319,8.132c19.823,0.389,25.319-8.132,25.319-8.132c21.223-19.7,43.754-57.023,43.754-57.023
				S236.868,358.324,226.558,349.252z"/>
		</g>
		<g>
			<path style="fill:#C32F1D;" d="M303.114,377.871c-8.974-6.461-63.896-24.051-63.896-24.051l-4.667-2.154l-39.127,21.538
				l-39.127-21.538l-4.667,2.154c0,0-54.922,17.589-63.896,24.051s-27.999,58.153-29.076,100.87h62.101h149.33h62.101
				C331.114,436.024,312.089,384.332,303.114,377.871z"/>
			<path style="fill:#972318;" d="M156.835,332.462c0,0,12.205,4.667,25.487,14s13.282,26.923,13.282,26.923
				c0.18,0.179-28.538-10.949-43.973-19.564C151.63,353.82,154.143,333.718,156.835,332.462z"/>
			<path style="fill:#972318;" d="M234.013,332.462c0,0-12.205,4.667-25.487,14s-13.282,26.923-13.282,26.923
				c-0.179,0.179,28.538-10.949,43.973-19.564C239.218,353.82,236.705,333.718,234.013,332.462z"/>
			<g>
				<path style="fill:#F6AE46;" d="M125.422,399.217c-0.172-1.064-0.62-2.12-1.378-2.899c-0.475-0.488-1.043-0.827-1.658-1.072
					c1.157-1.366,1.81-3.154,1.893-4.936c0.052-1.126-0.116-2.285-0.555-3.327c-0.461-1.097-1.284-2.003-2.265-2.665
					c-1.021-0.688-2.232-1.131-3.467-1.188c-1.263-0.058-2.393,0.362-3.42,1.074c-0.219,0.152-0.429,0.316-0.635,0.485
					c0.07-0.645,0.086-1.299,0.029-1.964c-0.236-2.753-2.241-5.321-4.985-5.963c-2.884-0.675-5.72,1.125-7.339,3.41
					c-0.812,1.145-1.366,2.49-1.549,3.884c-0.006,0.046-0.009,0.092-0.014,0.138c-0.101-0.064-0.201-0.127-0.303-0.187
					c-1-0.581-2.149-0.965-3.316-0.899c-1.142,0.064-2.214,0.513-3.092,1.24c-1.953,1.616-3.008,4.221-2.645,6.735
					c0.276,1.913,1.374,3.608,2.859,4.818c-1.688,0.912-2.983,2.458-3.37,4.39c-0.522,2.606,0.625,5.225,2.455,7.055
					c1.732,1.732,4.308,3.134,6.819,2.522c1.094-0.267,2.061-0.869,2.866-1.66c-0.011,0.635,0.07,1.264,0.317,1.849
					c0.912,2.159,3.474,3.214,5.661,3.474c2.309,0.274,4.887-0.298,6.695-1.808c0.781-0.653,1.489-1.509,1.749-2.512
					c0.246-0.949,0.222-1.949,0.099-2.915c-0.003-0.026-0.01-0.052-0.013-0.079c0.171,0.102,0.345,0.2,0.523,0.291
					c0.97,0.492,2.065,0.838,3.163,0.694c1.199-0.157,2.227-0.941,2.982-1.847C124.962,403.631,125.787,401.469,125.422,399.217z"/>
				<path style="fill:#D4953C;" d="M106.47,382.307c0.014-0.09-0.134-0.038-0.147,0.031c-0.73,3.846-0.326,8.028,0.878,11.739
					c0.049,0.15,0.301,0.015,0.269-0.118C106.548,390.141,105.835,386.235,106.47,382.307z"/>
				<path style="fill:#D4953C;" d="M108.616,383.163c0.022-0.155-0.233-0.067-0.253,0.053c-0.51,3.024-0.315,6.069-0.243,9.117
					c0.007,0.28,0.453,0.129,0.449-0.095C108.521,389.22,108.192,386.167,108.616,383.163z"/>
				<path style="fill:#D4953C;" d="M118.06,387.759c-0.883,0.442-1.676,1.025-2.474,1.603c-0.761,0.551-1.523,1.097-2.254,1.69
					c-1.439,1.167-2.85,2.465-3.811,4.065c-0.174,0.29,0.249,0.314,0.391,0.114c1.057-1.492,2.333-2.804,3.733-3.975
					c0.667-0.558,1.362-1.079,2.057-1.602c0.781-0.588,1.552-1.193,2.42-1.649C118.286,387.918,118.26,387.659,118.06,387.759z"/>
				<path style="fill:#D4953C;" d="M119.318,390.705c-1.413-0.042-2.664,1.021-3.831,1.68c-0.788,0.445-1.555,0.923-2.317,1.412
					c-0.788,0.506-1.608,0.989-2.352,1.557c-0.231,0.177-0.138,0.566,0.182,0.4c1.508-0.779,2.864-1.864,4.322-2.735
					c0.598-0.357,1.192-0.715,1.785-1.079c0.625-0.383,1.312-0.808,2.067-0.817C119.405,391.12,119.635,390.715,119.318,390.705z"/>
				<path style="fill:#D4953C;" d="M105.787,393.961c-0.4-0.717-1.07-1.281-1.691-1.809c-0.667-0.568-1.376-1.081-2.106-1.564
					c-0.769-0.509-1.533-1.033-2.323-1.507c-0.348-0.209-0.701-0.424-1.072-0.591c-0.453-0.205-0.928-0.341-1.329-0.648
					c-0.042-0.032-0.123,0.042-0.078,0.082c0.305,0.27,0.655,0.452,1.009,0.647c0.4,0.219,0.782,0.471,1.156,0.732
					c0.753,0.525,1.495,1.065,2.241,1.6c0.671,0.482,1.33,0.986,1.953,1.529c0.663,0.578,1.22,1.269,1.901,1.821
					C105.602,394.375,105.881,394.13,105.787,393.961z"/>
				<path style="fill:#D4953C;" d="M105.791,394.614c-1.435-1.086-3.13-1.84-4.782-2.531c-1.705-0.713-3.42-1.6-5.233-1.994
					c-0.113-0.025-0.273,0.172-0.129,0.207c1.749,0.432,3.375,1.339,5.007,2.081c1.664,0.757,3.218,1.654,4.759,2.634
					C105.627,395.148,106.028,394.793,105.791,394.614z"/>
				<path style="fill:#D4953C;" d="M106.196,396.43c-4.274,0.393-7.817,3.234-11.375,5.351c-0.05,0.03-0.024,0.106,0.035,0.076
					c3.663-1.858,7.077-4.328,11.235-4.915C106.344,396.906,106.551,396.397,106.196,396.43z"/>
				<path style="fill:#D4953C;" d="M105.323,397.725c-3.268,1.96-6.074,4.61-9.419,6.453c-0.12,0.066-0.103,0.261,0.047,0.184
					c3.415-1.758,6.405-4.204,9.641-6.253C105.933,397.893,105.661,397.523,105.323,397.725z"/>
				<path style="fill:#D4953C;" d="M107.227,398.441c0.033-0.321-0.462-0.123-0.506,0.107c-0.375,1.996-0.495,4.043-0.484,6.072
					c0.01,1.991,0.229,3.973,0.689,5.912c0.033,0.137,0.262,0.014,0.241-0.106C106.468,406.436,106.818,402.436,107.227,398.441z"/>
				<path style="fill:#D4953C;" d="M110.536,409.466c-1.064-3.392,0.268-7.256-1.66-10.419c-0.15-0.247-0.612,0.087-0.482,0.338
					c1.643,3.192,0.602,6.926,1.805,10.229C110.265,409.799,110.588,409.632,110.536,409.466z"/>
				<path style="fill:#D4953C;" d="M121.246,400.163c-1.171-1.632-3.046-2.501-4.938-3.007c-1.919-0.513-3.959-0.797-5.942-0.889
					c-0.182-0.009-0.46,0.354-0.194,0.404c1.896,0.356,3.829,0.401,5.71,0.867c1.893,0.469,3.791,1.279,4.976,2.898
					C120.994,400.622,121.38,400.351,121.246,400.163z"/>
				<path style="fill:#D4953C;" d="M119.374,402.837c-0.357-0.188-0.582-0.517-0.863-0.795c-0.316-0.313-0.669-0.589-1.037-0.836
					c-0.763-0.513-1.604-0.901-2.441-1.275c-0.884-0.395-1.784-0.753-2.672-1.139c-0.908-0.395-1.78-0.865-2.699-1.234
					c-0.136-0.055-0.343,0.158-0.211,0.271c0.707,0.61,1.567,0.976,2.416,1.348c0.91,0.399,1.836,0.762,2.753,1.146
					c0.882,0.369,1.766,0.754,2.569,1.277c0.393,0.256,0.762,0.543,1.095,0.873c0.264,0.262,0.522,0.504,0.87,0.647
					C119.288,403.175,119.534,402.921,119.374,402.837z"/>
				<path style="fill:#418258;" d="M113.523,392.777c-0.795-1.706-2.59-2.863-4.449-3.038c-2.011-0.189-3.864,0.934-5.344,2.173
					c-0.16,0.134-0.352,0.378-0.202,0.591c0.004,0.005,0.009,0.009,0.013,0.014c-0.168,0.213-0.326,0.434-0.46,0.673
					c-1.415,2.525-0.677,6.217,1.922,7.666c2.16,1.204,4.951,0.678,6.821-0.84c0.95-0.771,1.711-1.795,2.042-2.984
					C114.249,395.659,114.125,394.068,113.523,392.777z"/>
			</g>
			<g>
				<path style="fill:#F6AE46;" d="M236.57,404.068c0.271-0.927,0.315-1.952,0.002-2.874c-0.196-0.577-0.524-1.07-0.927-1.505
					c1.461-0.659,2.678-1.852,3.431-3.261c0.476-0.89,0.786-1.892,0.833-2.903c0.049-1.064-0.266-2.113-0.805-3.026
					c-0.56-0.949-1.369-1.774-2.345-2.295c-0.998-0.533-2.074-0.629-3.178-0.448c-0.235,0.039-0.468,0.09-0.7,0.147
					c0.305-0.494,0.569-1.017,0.779-1.577c0.869-2.316,0.237-5.163-1.733-6.739c-2.071-1.656-5.056-1.293-7.244-0.069
					c-1.097,0.613-2.062,1.486-2.747,2.543c-0.022,0.035-0.042,0.071-0.064,0.106c-0.057-0.09-0.114-0.18-0.173-0.268
					c-0.584-0.854-1.365-1.608-2.334-2.004c-0.947-0.387-1.987-0.438-2.977-0.188c-2.201,0.554-4.056,2.253-4.731,4.426
					c-0.513,1.653-0.279,3.445,0.456,4.995c-1.715,0.087-3.357,0.838-4.414,2.251c-1.426,1.905-1.507,4.464-0.732,6.647
					c0.733,2.067,2.275,4.192,4.541,4.664c0.987,0.206,2.001,0.091,2.955-0.238c-0.253,0.509-0.43,1.049-0.456,1.616
					c-0.094,2.096,1.571,3.936,3.238,4.987c1.76,1.11,4.065,1.64,6.107,1.116c0.883-0.227,1.784-0.646,2.381-1.357
					c0.564-0.672,0.93-1.49,1.203-2.318c0.008-0.023,0.013-0.046,0.02-0.069c0.099,0.148,0.202,0.295,0.311,0.436
					c0.594,0.771,1.347,1.472,2.29,1.779c1.03,0.335,2.162,0.097,3.122-0.345C234.499,407.459,235.998,406.029,236.57,404.068z"/>
				<path style="fill:#D4953C;" d="M227.762,383.104c0.046-0.067-0.094-0.083-0.131-0.031c-2.071,2.827-3.354,6.363-3.81,9.826
					c-0.019,0.14,0.237,0.128,0.263,0.008C224.809,389.466,225.737,386.034,227.762,383.104z"/>
				<path style="fill:#D4953C;" d="M229.167,384.622c0.077-0.116-0.162-0.143-0.225-0.054c-1.576,2.248-2.591,4.784-3.706,7.276
					c-0.103,0.229,0.316,0.279,0.4,0.096C226.758,389.481,227.668,386.887,229.167,384.622z"/>
				<path style="fill:#D4953C;" d="M235.031,391.973c-0.884,0.017-1.75,0.184-2.617,0.343c-0.827,0.152-1.654,0.301-2.472,0.498
					c-1.612,0.389-3.253,0.895-4.646,1.818c-0.252,0.167,0.081,0.349,0.272,0.242c1.428-0.799,2.965-1.368,4.548-1.776
					c0.754-0.194,1.516-0.347,2.279-0.503c0.857-0.175,1.714-0.367,2.591-0.401C235.152,392.189,235.231,391.969,235.031,391.973z"
					/>
				<path style="fill:#D4953C;" d="M234.914,394.838c-1.126-0.578-2.547-0.201-3.743-0.117c-0.808,0.056-1.613,0.147-2.416,0.249
					c-0.832,0.105-1.68,0.18-2.501,0.353c-0.255,0.054-0.329,0.404-0.007,0.394c1.519-0.049,3.033-0.404,4.546-0.547
					c0.62-0.058,1.239-0.119,1.859-0.185c0.652-0.069,1.372-0.148,1.986,0.135C234.824,395.207,235.166,394.968,234.914,394.838z"/>
				<path style="fill:#D4953C;" d="M222.723,392.26c-0.048-0.734-0.372-1.447-0.67-2.113c-0.32-0.716-0.696-1.403-1.1-2.075
					c-0.425-0.707-0.841-1.425-1.297-2.113c-0.201-0.303-0.404-0.612-0.639-0.891c-0.287-0.34-0.619-0.633-0.824-1.035
					c-0.022-0.042-0.115-0.014-0.094,0.036c0.142,0.336,0.355,0.618,0.567,0.911c0.239,0.331,0.45,0.682,0.652,1.037
					c0.406,0.714,0.798,1.437,1.195,2.156c0.357,0.648,0.695,1.309,0.99,1.988c0.313,0.723,0.498,1.495,0.836,2.204
					C222.414,392.524,222.734,392.433,222.723,392.26z"/>
				<path style="fill:#D4953C;" d="M222.476,392.79c-0.742-1.43-1.821-2.692-2.891-3.887c-1.103-1.233-2.148-2.61-3.462-3.627
					c-0.082-0.063-0.287,0.034-0.184,0.118c1.247,1.022,2.212,2.382,3.246,3.61c1.053,1.252,1.964,2.576,2.832,3.961
					C222.137,393.158,222.598,393.026,222.476,392.79z"/>
				<path style="fill:#D4953C;" d="M222.104,394.414c-3.606-1.328-7.564-0.395-11.254-0.055c-0.052,0.005-0.06,0.076-0.001,0.075
					c3.676-0.092,7.386-0.773,10.973,0.353C222.039,394.855,222.403,394.524,222.104,394.414z"/>
				<path style="fill:#D4953C;" d="M220.899,395.124c-3.396,0.326-6.684,1.388-10.097,1.589c-0.122,0.007-0.184,0.171-0.033,0.167
					c3.437-0.106,6.796-0.932,10.2-1.343C221.327,395.494,221.25,395.091,220.899,395.124z"/>
				<path style="fill:#D4953C;" d="M222.162,396.435c0.15-0.247-0.326-0.277-0.45-0.108c-1.071,1.469-1.956,3.077-2.729,4.721
					c-0.758,1.613-1.344,3.3-1.719,5.043c-0.027,0.124,0.206,0.112,0.236,0.007C218.471,402.606,220.294,399.508,222.162,396.435z"
					/>
				<path style="fill:#D4953C;" d="M220.592,406.621c0.446-3.151,3.01-5.762,2.669-9.06c-0.027-0.257-0.528-0.165-0.52,0.088
					c0.099,3.212-2.18,5.83-2.479,8.962C220.245,406.786,220.57,406.775,220.592,406.621z"/>
				<path style="fill:#D4953C;" d="M232.83,403.225c-0.318-1.77-1.499-3.194-2.834-4.332c-1.354-1.153-2.893-2.169-4.46-3.007
					c-0.144-0.077-0.508,0.109-0.312,0.252c1.395,1.018,2.94,1.798,4.282,2.899c1.35,1.108,2.572,2.493,2.906,4.258
					C232.45,403.499,232.867,403.429,232.83,403.225z"/>
				<path style="fill:#D4953C;" d="M230.288,404.665c-0.216-0.29-0.271-0.642-0.391-0.975c-0.135-0.374-0.314-0.733-0.516-1.075
					c-0.419-0.708-0.949-1.346-1.482-1.97c-0.563-0.66-1.152-1.296-1.721-1.949c-0.582-0.669-1.106-1.384-1.706-2.037
					c-0.089-0.096-0.338-0.005-0.275,0.138c0.336,0.765,0.891,1.393,1.434,2.02c0.582,0.673,1.191,1.323,1.784,1.986
					c0.571,0.638,1.137,1.29,1.585,2.022c0.219,0.358,0.406,0.732,0.548,1.127c0.113,0.313,0.228,0.608,0.455,0.858
					C230.089,404.906,230.385,404.796,230.288,404.665z"/>
				<path style="fill:#418258;" d="M229.432,394.282c0.014-1.685-0.991-3.311-2.426-4.168c-1.553-0.927-3.482-0.733-5.156-0.301
					c-0.181,0.047-0.43,0.17-0.391,0.4c0.001,0.006,0.004,0.01,0.005,0.016c-0.218,0.108-0.43,0.225-0.631,0.367
					c-2.116,1.496-2.941,4.765-1.398,6.936c1.282,1.805,3.741,2.454,5.836,1.947c1.065-0.258,2.074-0.792,2.8-1.626
					C228.91,396.891,229.421,395.557,229.432,394.282z"/>
			</g>
			<g>
				<path style="fill:#F6AE46;" d="M183.871,454.83c0.246-0.843,0.286-1.776,0.002-2.615c-0.178-0.525-0.477-0.974-0.844-1.37
					c1.329-0.599,2.437-1.686,3.122-2.967c0.433-0.81,0.715-1.721,0.758-2.641c0.045-0.968-0.242-1.923-0.733-2.753
					c-0.51-0.864-1.246-1.614-2.134-2.088c-0.908-0.485-1.887-0.572-2.892-0.408c-0.214,0.035-0.426,0.082-0.637,0.134
					c0.277-0.45,0.518-0.925,0.709-1.435c0.791-2.108,0.216-4.698-1.577-6.132c-1.885-1.507-4.601-1.177-6.592-0.063
					c-0.998,0.558-1.876,1.353-2.5,2.314c-0.021,0.031-0.039,0.065-0.059,0.097c-0.052-0.082-0.103-0.164-0.158-0.244
					c-0.532-0.777-1.242-1.463-2.124-1.823c-0.862-0.353-1.808-0.398-2.709-0.171c-2.002,0.505-3.691,2.05-4.305,4.027
					c-0.467,1.504-0.254,3.135,0.415,4.545c-1.561,0.079-3.055,0.763-4.017,2.048c-1.297,1.734-1.371,4.062-0.666,6.049
					c0.667,1.881,2.07,3.814,4.132,4.244c0.898,0.187,1.821,0.083,2.689-0.216c-0.23,0.463-0.392,0.954-0.415,1.471
					c-0.086,1.907,1.429,3.581,2.946,4.538c1.602,1.01,3.699,1.493,5.557,1.015c0.803-0.206,1.624-0.588,2.166-1.235
					c0.514-0.612,0.846-1.356,1.094-2.109c0.007-0.021,0.011-0.042,0.018-0.063c0.09,0.135,0.183,0.268,0.283,0.397
					c0.541,0.702,1.225,1.34,2.083,1.619c0.937,0.305,1.967,0.088,2.84-0.314C181.986,457.916,183.35,456.614,183.871,454.83z"/>
				<path style="fill:#D4953C;" d="M175.856,435.754c0.042-0.061-0.085-0.075-0.119-0.029c-1.884,2.573-3.052,5.79-3.467,8.941
					c-0.017,0.127,0.216,0.117,0.239,0.007C173.169,441.543,174.013,438.419,175.856,435.754z"/>
				<path style="fill:#D4953C;" d="M177.135,437.134c0.07-0.106-0.148-0.13-0.205-0.049c-1.434,2.045-2.358,4.353-3.373,6.621
					c-0.093,0.208,0.288,0.254,0.364,0.087C174.942,441.556,175.77,439.196,177.135,437.134z"/>
				<path style="fill:#D4953C;" d="M182.471,443.824c-0.805,0.016-1.592,0.167-2.381,0.312c-0.753,0.139-1.505,0.273-2.249,0.453
					c-1.467,0.354-2.96,0.814-4.227,1.654c-0.23,0.152,0.073,0.318,0.248,0.221c1.3-0.727,2.698-1.245,4.138-1.616
					c0.686-0.177,1.38-0.316,2.074-0.457c0.78-0.159,1.559-0.334,2.358-0.365C182.581,444.02,182.653,443.821,182.471,443.824z"/>
				<path style="fill:#D4953C;" d="M182.364,446.431c-1.024-0.526-2.317-0.183-3.406-0.107c-0.735,0.051-1.467,0.134-2.199,0.227
					c-0.757,0.096-1.529,0.164-2.276,0.321c-0.232,0.049-0.299,0.368-0.006,0.358c1.382-0.045,2.76-0.368,4.137-0.497
					c0.565-0.053,1.127-0.108,1.691-0.168c0.593-0.063,1.248-0.134,1.807,0.123C182.282,446.767,182.593,446.549,182.364,446.431z"
					/>
				<path style="fill:#D4953C;" d="M171.271,444.085c-0.043-0.668-0.339-1.317-0.61-1.923c-0.291-0.652-0.633-1.277-1.001-1.888
					c-0.387-0.644-0.766-1.297-1.18-1.923c-0.183-0.276-0.367-0.557-0.581-0.811c-0.261-0.31-0.563-0.576-0.75-0.942
					c-0.02-0.039-0.105-0.012-0.086,0.033c0.129,0.305,0.323,0.562,0.516,0.829c0.218,0.301,0.41,0.621,0.594,0.943
					c0.37,0.65,0.727,1.307,1.087,1.962c0.325,0.59,0.633,1.191,0.901,1.809c0.285,0.657,0.453,1.361,0.761,2.005
					C170.99,444.325,171.281,444.242,171.271,444.085z"/>
				<path style="fill:#D4953C;" d="M171.045,444.567c-0.675-1.302-1.657-2.45-2.63-3.537c-1.004-1.122-1.955-2.375-3.15-3.3
					c-0.074-0.058-0.261,0.03-0.167,0.107c1.135,0.93,2.013,2.167,2.953,3.285c0.958,1.139,1.787,2.344,2.577,3.605
					C170.738,444.902,171.157,444.782,171.045,444.567z"/>
				<path style="fill:#D4953C;" d="M170.707,446.045c-3.281-1.209-6.883-0.36-10.241-0.05c-0.047,0.004-0.055,0.069-0.001,0.068
					c3.345-0.084,6.721-0.704,9.985,0.321C170.648,446.447,170.979,446.145,170.707,446.045z"/>
				<path style="fill:#D4953C;" d="M169.611,446.692c-3.09,0.297-6.082,1.263-9.188,1.446c-0.111,0.007-0.167,0.156-0.03,0.151
					c3.127-0.097,6.184-0.848,9.281-1.222C170.001,447.028,169.93,446.661,169.611,446.692z"/>
				<path style="fill:#D4953C;" d="M170.76,447.885c0.137-0.224-0.297-0.252-0.409-0.098c-0.975,1.337-1.78,2.8-2.483,4.296
					c-0.69,1.468-1.223,3.003-1.565,4.589c-0.024,0.113,0.188,0.102,0.214,0.007C167.401,453.5,169.06,450.68,170.76,447.885z"/>
				<path style="fill:#D4953C;" d="M169.331,457.153c0.406-2.867,2.739-5.243,2.429-8.245c-0.024-0.234-0.48-0.15-0.473,0.08
					c0.09,2.923-1.984,5.305-2.256,8.155C169.016,457.303,169.311,457.293,169.331,457.153z"/>
				<path style="fill:#D4953C;" d="M180.468,454.063c-0.289-1.611-1.364-2.907-2.579-3.941c-1.232-1.049-2.633-1.973-4.059-2.736
					c-0.131-0.07-0.462,0.099-0.284,0.229c1.27,0.927,2.676,1.636,3.896,2.638c1.228,1.008,2.34,2.269,2.644,3.874
					C180.122,454.312,180.501,454.248,180.468,454.063z"/>
				<path style="fill:#D4953C;" d="M178.154,455.374c-0.197-0.264-0.247-0.584-0.356-0.887c-0.123-0.341-0.286-0.667-0.47-0.979
					c-0.382-0.644-0.864-1.225-1.349-1.793c-0.512-0.6-1.048-1.179-1.566-1.774c-0.53-0.609-1.006-1.26-1.553-1.853
					c-0.081-0.088-0.307-0.004-0.25,0.125c0.306,0.696,0.811,1.267,1.304,1.838c0.53,0.613,1.083,1.204,1.623,1.807
					c0.519,0.58,1.035,1.173,1.442,1.84c0.199,0.326,0.37,0.667,0.499,1.026c0.102,0.285,0.207,0.553,0.414,0.78
					C177.973,455.592,178.242,455.492,178.154,455.374z"/>
				<path style="fill:#418258;" d="M177.376,445.925c0.013-1.533-0.902-3.013-2.208-3.793c-1.413-0.844-3.169-0.667-4.692-0.274
					c-0.165,0.043-0.391,0.154-0.356,0.364c0.001,0.005,0.004,0.009,0.005,0.014c-0.198,0.098-0.392,0.205-0.574,0.334
					c-1.925,1.362-2.676,4.336-1.272,6.312c1.167,1.642,3.404,2.233,5.311,1.772c0.969-0.234,1.887-0.721,2.548-1.479
					C176.9,448.299,177.366,447.085,177.376,445.925z"/>
			</g>
			<g>
				<path style="fill:#72814C;" d="M90.844,417.941c-0.73,0.827-1.331,1.773-1.808,2.765c-1.612,3.356-2.173,7.337-1.756,11.026
					c0.435,3.848,2.299,7.221,4.825,10.074c0.968-1.75,2.006-3.469,2.601-5.392c0.6-1.94,0.927-4.052,0.977-6.081
					c0.044-1.801-0.117-3.673-0.659-5.399c-0.34-1.082-0.826-2.132-1.328-3.146c-0.565-1.141-1.178-2.342-2.07-3.267
					C91.407,418.294,91.147,418.057,90.844,417.941z"/>
				<path style="fill:#72814C;" d="M71.46,430.257c1.706,1.97,3.908,3.55,6.229,4.715c2.35,1.178,5.054,2.113,7.721,1.939
					c-0.2-0.625-0.753-1.09-1.183-1.57c-0.028-0.032-0.057-0.063-0.085-0.094c-1.458-1.856-3.118-3.569-5.114-4.845
					c-1.918-1.226-4.21-2.314-6.483-2.615c-0.546-0.072-1.101-0.103-1.65-0.042c-0.298,0.033-0.672,0.063-0.972,0.193
					C70.297,428.787,70.859,429.563,71.46,430.257z"/>
				<path style="fill:#72814C;" d="M77.16,413.029c-0.477,0.873-0.778,1.842-0.919,2.835c-0.413,2.917,0.393,5.887,1.88,8.393
					c1.385,2.333,3.397,4.644,5.913,5.826c0.035-0.08,0.057-0.158,0.062-0.214c0.116-1.525-0.458-3.093-0.801-4.562
					c-0.405-1.732-0.815-3.469-1.472-5.126c-0.659-1.66-1.544-3.243-2.633-4.659c-0.635-0.827-1.194-1.834-2.02-2.485
					C77.167,413.033,77.164,413.032,77.16,413.029z"/>
			</g>
			<g>
				<path style="fill:#72814C;" d="M151.229,421.733c-0.909-0.265-1.864-0.386-2.809-0.394c-3.197-0.026-6.494,0.993-9.207,2.665
					c-2.83,1.744-4.77,4.425-6.064,7.43c1.714,0.112,3.428,0.291,5.14,0.05c1.727-0.243,3.487-0.761,5.081-1.463
					c1.415-0.624,2.811-1.433,3.954-2.485c0.716-0.659,1.354-1.421,1.958-2.182c0.68-0.856,1.389-1.771,1.781-2.802
					C151.16,422.299,151.249,422.011,151.229,421.733z"/>
				<path style="fill:#72814C;" d="M134.577,411.174c-0.907,2.045-1.33,4.333-1.387,6.562c-0.057,2.256,0.206,4.699,1.315,6.707
					c0.412-0.384,0.572-0.983,0.787-1.493c0.014-0.034,0.028-0.067,0.042-0.101c0.909-1.811,1.633-3.726,1.895-5.743
					c0.252-1.938,0.26-4.116-0.338-5.992c-0.144-0.451-0.322-0.893-0.57-1.297c-0.135-0.22-0.295-0.499-0.505-0.685
					C135.293,409.733,134.896,410.454,134.577,411.174z"/>
				<path style="fill:#72814C;" d="M150.044,409.307c-0.853-0.051-1.716,0.069-2.538,0.322c-2.417,0.745-4.43,2.456-5.833,4.527
					c-1.306,1.929-2.366,4.336-2.365,6.723c0.075-0.002,0.144-0.013,0.189-0.03c1.227-0.467,2.236-1.486,3.251-2.289
					c1.197-0.947,2.397-1.901,3.444-3.017c1.049-1.119,1.955-2.385,2.657-3.749c0.41-0.796,0.989-1.598,1.193-2.477
					C150.043,409.314,150.043,409.311,150.044,409.307z"/>
			</g>
			<g>
				<path style="fill:#72814C;" d="M240.47,452.878c0.141,1.094,0.457,2.17,0.888,3.182c1.462,3.425,4.086,6.47,7.135,8.587
					c3.181,2.208,6.946,3.03,10.757,3.01c-0.679-1.881-1.287-3.795-2.341-5.51c-1.064-1.73-2.437-3.368-3.93-4.742
					c-1.326-1.22-2.839-2.333-4.495-3.063c-1.037-0.457-2.148-0.784-3.241-1.074c-1.23-0.327-2.538-0.658-3.821-0.596
					C241.106,452.687,240.757,452.726,240.47,452.878z"/>
				<path style="fill:#72814C;" d="M236.958,475.573c2.606,0.015,5.245-0.599,7.651-1.578c2.435-0.991,4.92-2.409,6.547-4.53
					c-0.602-0.261-1.316-0.152-1.96-0.144c-0.042,0.001-0.085,0.002-0.127,0.002c-2.357-0.127-4.739-0.007-7.014,0.653
					c-2.186,0.634-4.515,1.641-6.239,3.152c-0.414,0.363-0.803,0.76-1.119,1.213c-0.172,0.246-0.395,0.547-0.496,0.858
					C235.086,475.48,236.04,475.568,236.958,475.573z"/>
				<path style="fill:#72814C;" d="M227.758,459.932c0.343,0.934,0.873,1.799,1.526,2.559c1.922,2.233,4.687,3.585,7.551,4.117
					c2.668,0.496,5.731,0.505,8.279-0.608c-0.037-0.079-0.081-0.147-0.121-0.188c-1.07-1.092-2.628-1.694-3.958-2.404
					c-1.569-0.837-3.146-1.674-4.825-2.271c-1.683-0.599-3.457-0.975-5.24-1.09c-1.04-0.067-2.166-0.311-3.2-0.119
					C227.765,459.93,227.762,459.931,227.758,459.932z"/>
			</g>
			<g>
				<path style="fill:#72814C;" d="M315.291,426.923c-1.08-0.222-2.201-0.273-3.298-0.193c-3.714,0.271-7.446,1.765-10.438,3.962
					c-3.121,2.292-5.121,5.587-6.339,9.198c2-0.031,4.007,0.015,5.972-0.426c1.982-0.445,3.976-1.212,5.761-2.178
					c1.585-0.858,3.128-1.928,4.356-3.258c0.769-0.833,1.438-1.777,2.068-2.717c0.709-1.058,1.446-2.187,1.804-3.421
					C315.264,427.587,315.341,427.243,315.291,426.923z"/>
				<path style="fill:#72814C;" d="M294.964,416.234c-0.86,2.46-1.136,5.156-0.991,7.749c0.147,2.625,0.682,5.436,2.159,7.663
					c0.442-0.485,0.571-1.195,0.773-1.807c0.013-0.04,0.026-0.081,0.039-0.121c0.885-2.188,1.545-4.48,1.659-6.846
					c0.109-2.274-0.086-4.803-0.957-6.924c-0.209-0.51-0.458-1.007-0.784-1.453c-0.177-0.242-0.389-0.551-0.651-0.747
					C295.66,414.494,295.267,415.368,294.964,416.234z"/>
				<path style="fill:#72814C;" d="M312.744,412.609c-0.995,0.021-1.985,0.242-2.916,0.613c-2.736,1.093-4.912,3.269-6.345,5.806
					c-1.335,2.362-2.338,5.257-2.112,8.028c0.087-0.01,0.166-0.029,0.217-0.053c1.38-0.658,2.456-1.936,3.559-2.964
					c1.301-1.212,2.604-2.432,3.714-3.827c1.112-1.398,2.045-2.953,2.732-4.602c0.401-0.962,0.997-1.948,1.151-2.988
					C312.744,412.617,312.744,412.614,312.744,412.609z"/>
			</g>
			<g>
				<path style="fill:#72814C;" d="M137.491,362.46c-0.132,1.095-0.09,2.216,0.081,3.302c0.577,3.679,2.374,7.274,4.811,10.075
					c2.542,2.921,5.991,4.642,9.69,5.557c-0.196-1.991-0.316-3.995-0.918-5.916c-0.607-1.938-1.536-3.862-2.646-5.561
					c-0.986-1.508-2.18-2.958-3.607-4.072c-0.893-0.698-1.89-1.287-2.879-1.836c-1.113-0.619-2.299-1.26-3.558-1.515
					C138.155,362.431,137.807,362.383,137.491,362.46z"/>
				<path style="fill:#72814C;" d="M128.519,383.6c2.522,0.654,5.232,0.706,7.804,0.348c2.604-0.363,5.361-1.129,7.458-2.785
					c-0.52-0.401-1.239-0.47-1.865-0.621c-0.041-0.01-0.082-0.019-0.124-0.029c-2.254-0.701-4.592-1.169-6.96-1.087
					c-2.275,0.079-4.78,0.483-6.822,1.526c-0.491,0.25-0.965,0.54-1.383,0.901c-0.227,0.196-0.517,0.433-0.691,0.71
					C126.727,383.05,127.63,383.37,128.519,383.6z"/>
				<path style="fill:#72814C;" d="M123.437,366.18c0.103,0.99,0.405,1.959,0.852,2.855c1.315,2.637,3.664,4.625,6.31,5.844
					c2.464,1.135,5.432,1.896,8.175,1.441c-0.017-0.086-0.042-0.163-0.071-0.211c-0.77-1.321-2.132-2.287-3.248-3.302
					c-1.316-1.196-2.639-2.394-4.121-3.385c-1.485-0.993-3.112-1.794-4.812-2.342c-0.992-0.32-2.024-0.833-3.073-0.9
					C123.445,366.18,123.441,366.181,123.437,366.18z"/>
			</g>
			<g>
				<path style="fill:#72814C;" d="M243.019,357.957c0.876,0.465,1.683,1.072,2.398,1.756c2.421,2.316,4.154,5.491,4.97,8.73
					c0.852,3.379,0.351,6.81-0.874,10.013c-1.369-1.168-2.788-2.286-3.898-3.718c-1.12-1.444-2.064-3.119-2.748-4.812
					c-0.608-1.503-1.065-3.13-1.155-4.756c-0.057-1.018,0.021-2.057,0.123-3.07c0.115-1.14,0.25-2.346,0.709-3.407
					C242.657,358.432,242.801,358.151,243.019,357.957z"/>
				<path style="fill:#72814C;" d="M261.975,369.958c-0.813,2.199-2.167,4.228-3.753,5.944c-1.606,1.737-3.588,3.38-5.889,4.078
					c-0.029-0.59,0.289-1.156,0.5-1.697c0.014-0.036,0.028-0.071,0.042-0.106c0.64-2.025,1.496-3.993,2.773-5.7
					c1.227-1.64,2.813-3.282,4.632-4.255c0.437-0.234,0.895-0.436,1.376-0.558c0.262-0.067,0.586-0.159,0.88-0.145
					C262.49,368.352,262.262,369.183,261.975,369.958z"/>
			</g>
			<g>
				<path style="fill:#72814C;" d="M178.529,384.493c-0.416,1.021-0.671,2.113-0.794,3.207c-0.414,3.701,0.37,7.643,1.981,10.987
					c1.681,3.488,4.553,6.058,7.88,7.918c0.336-1.972,0.749-3.936,0.676-5.949c-0.074-2.029-0.462-4.131-1.085-6.063
					c-0.553-1.715-1.322-3.428-2.404-4.879c-0.678-0.909-1.484-1.74-2.292-2.531c-0.91-0.891-1.885-1.822-3.032-2.4
					C179.177,384.641,178.854,384.503,178.529,384.493z"/>
				<path style="fill:#72814C;" d="M170.913,408.236c2.26,1.296,4.86,2.062,7.436,2.395c2.607,0.337,5.468,0.326,7.929-0.718
					c-0.395-0.524-1.071-0.78-1.635-1.091c-0.037-0.02-0.074-0.04-0.112-0.061c-1.989-1.271-4.121-2.34-6.426-2.886
					c-2.215-0.524-4.738-0.795-6.982-0.329c-0.54,0.112-1.074,0.266-1.572,0.504c-0.271,0.129-0.613,0.282-0.854,0.503
					C169.33,407.232,170.117,407.779,170.913,408.236z"/>
			</g>
			<g>
				<path style="fill:#72814C;" d="M211.44,428.324c0.416,1.021,0.671,2.113,0.794,3.207c0.415,3.701-0.37,7.643-1.981,10.987
					c-1.681,3.488-4.553,6.058-7.88,7.918c-0.336-1.972-0.749-3.936-0.676-5.949c0.074-2.029,0.462-4.131,1.085-6.062
					c0.553-1.715,1.322-3.429,2.404-4.879c0.677-0.909,1.484-1.74,2.292-2.531c0.91-0.891,1.885-1.822,3.032-2.4
					C210.793,428.471,211.116,428.333,211.44,428.324z"/>
				<path style="fill:#72814C;" d="M225.489,447.064c-2.26,1.296-4.86,2.062-7.436,2.395c-2.607,0.337-5.468,0.326-7.929-0.718
					c0.395-0.524,1.071-0.78,1.635-1.091c0.037-0.02,0.074-0.04,0.112-0.061c1.989-1.271,4.121-2.34,6.426-2.885
					c2.215-0.524,4.738-0.796,6.982-0.329c0.539,0.112,1.073,0.266,1.572,0.504c0.271,0.13,0.613,0.282,0.854,0.503
					C227.072,446.06,226.285,446.607,225.489,447.064z"/>
			</g>
			<g>
				<path style="fill:#72814C;" d="M113.293,438.266c-0.857-1.006-1.883-1.817-3.065-2.408c-0.402-0.201-0.908-0.515-1.379-0.396
					c-0.48,0.122-0.701,0.604-0.789,1.047c-0.301,1.504-0.11,3.19,0.129,4.69c0.247,1.552,0.65,3.094,1.223,4.559
					c0.66,1.688,1.668,3.21,2.903,4.532c0.603,0.645,1.257,1.246,1.935,1.812c0.112,0.094,0.225,0.186,0.339,0.276
					c0.703,1.12,1.838,1.932,2.732,2.892c0.143,0.153,0.409-0.081,0.441-0.224c0.146-0.662,0.074-1.331,0-1.998
					c-0.095-0.845-0.139-1.694-0.201-2.542c-0.125-1.699-0.323-3.375-0.75-5.027C116.141,442.894,115.037,440.313,113.293,438.266z"
					/>
				<path style="fill:#72814C;" d="M116.749,456.942c-0.288-0.578-0.626-1.101-1.052-1.584c-0.102-0.115-0.242-0.097-0.367-0.015
					c-1.683-2.01-3.536-3.889-5.874-5.136c-2.916-1.556-6.371-2.064-9.619-2.416c-1.189-0.129-2.924-0.354-3.887,0.544
					c-0.153,0.143-0.316,0.387-0.195,0.603c3.053,5.446,9.109,9.734,15.464,9.83c1.807,0.027,3.629-0.292,5.232-1.152
					C116.673,457.496,116.877,457.198,116.749,456.942z"/>
				<path style="fill:#72814C;" d="M152.99,454.901c-1.285-0.404-2.647-0.3-3.973-0.256c-1.617,0.054-3.231,0.18-4.831,0.426
					c-3.009,0.464-5.973,1.382-8.61,2.924c-1.211,0.708-2.353,1.536-3.358,2.514c-0.057-0.017-0.128-0.02-0.214-0.005
					c-0.126,0.022-0.229,0.062-0.348,0.107c-0.264,0.101-0.479,0.503-0.34,0.769c1.301,2.482,4.718,2.792,7.199,2.67
					c1.521-0.075,2.998-0.351,4.419-0.91c1.971-0.775,3.741-2,5.399-3.299c0.985-0.772,1.934-1.586,2.871-2.417
					c0.687-0.609,1.631-1.177,1.954-2.076C153.213,455.192,153.17,454.957,152.99,454.901z"/>
				<g>
					<path style="fill:#F6AE46;" d="M135.796,451.19c-1.005-0.208-1.996-0.132-2.94,0.152c0.362-1.453,0.433-3.034-0.084-4.444
						c-0.57-1.553-2.108-2.79-3.82-2.691c-2.074,0.121-3.845,1.974-4.714,3.734c-0.194,0.393-0.341,0.801-0.45,1.217
						c-0.392-0.47-0.849-0.887-1.344-1.251c-1.894-1.393-4.157-1.882-6.422-1.195c-2.06,0.624-4.074,2.23-4.519,4.429
						c-0.399,1.972,0.361,4.255,1.404,5.925c0.077,0.123,0.162,0.245,0.252,0.367c-0.964,0.472-1.8,1.207-2.326,2.155
						c-0.421,0.758-0.676,1.658-0.606,2.528c0.082,1.013,0.647,1.882,1.387,2.551c1.218,1.1,2.742,1.578,4.34,1.47
						c-0.593,1.054-1.034,2.332-0.776,3.536c0.224,1.043,0.957,2.037,1.71,2.767c3.124,3.032,8.582,2.738,11.436-0.507
						c0.835-0.95,1.389-2.137,1.455-3.4c0.575,0.444,1.219,0.781,1.88,0.958c1.943,0.52,4.005-0.237,5.401-1.624
						c2.575-2.558,2.864-7.182,0.365-9.764c0.985-1.015,1.65-2.442,1.509-3.845C138.766,452.601,137.339,451.51,135.796,451.19z"/>
					<path style="fill:#418258;" d="M127.613,454.045c-0.518-0.267-1.034-0.334-1.534-0.266c-0.823-0.223-1.726-0.184-2.53,0.091
						c-1.323,0.452-2.402,1.49-3.052,2.712c-0.636,1.196-0.907,2.635-0.465,3.944c0.346,1.025,1.084,1.867,2.049,2.35
						c3.398,1.7,8.242-1.507,7.909-5.298C129.862,456.112,128.918,454.719,127.613,454.045z"/>
				</g>
			</g>
			<g>
				<path style="fill:#F6AE46;" d="M253.873,430.311c-0.753-0.372-1.554-0.517-2.36-0.486c0.586-1.076,0.969-2.313,0.85-3.537
					c-0.131-1.347-1.094-2.645-2.471-2.92c-1.668-0.333-3.453,0.77-4.504,1.985c-0.235,0.271-0.435,0.564-0.607,0.871
					c-0.213-0.453-0.489-0.877-0.806-1.268c-1.213-1.494-2.904-2.348-4.84-2.272c-1.76,0.069-3.687,0.926-4.493,2.576
					c-0.723,1.48-0.592,3.445-0.11,4.983c0.036,0.113,0.078,0.228,0.124,0.343c-0.861,0.175-1.675,0.585-2.287,1.227
					c-0.49,0.514-0.878,1.173-1.001,1.878c-0.144,0.82,0.124,1.624,0.573,2.307c0.738,1.122,1.846,1.816,3.134,2.06
					c-0.688,0.712-1.3,1.633-1.344,2.641c-0.038,0.872,0.338,1.81,0.783,2.544c1.849,3.046,6.233,3.939,9.163,1.958
					c0.857-0.58,1.542-1.406,1.854-2.393c0.364,0.47,0.804,0.87,1.292,1.147c1.432,0.812,3.221,0.638,4.613-0.172
					c2.567-1.494,3.75-5.098,2.303-7.659c0.99-0.601,1.811-1.594,1.988-2.734C255.933,432.042,255.029,430.883,253.873,430.311z"/>
				<path style="fill:#418258;" d="M246.802,430.884c-0.355-0.319-0.75-0.478-1.16-0.527c-0.606-0.346-1.329-0.502-2.022-0.45
					c-1.141,0.085-2.21,0.685-2.977,1.518c-0.751,0.816-1.262,1.9-1.182,3.028c0.063,0.883,0.473,1.702,1.138,2.284
					c2.34,2.048,6.839,0.507,7.357-2.565C248.157,432.985,247.697,431.687,246.802,430.884z"/>
			</g>
			<g>
				<path style="fill:#F6AE46;" d="M163.428,388.402c-0.437-0.216-0.902-0.3-1.371-0.282c0.34-0.625,0.563-1.343,0.494-2.054
					c-0.076-0.782-0.635-1.536-1.435-1.695c-0.969-0.193-2.005,0.447-2.616,1.152c-0.137,0.158-0.253,0.327-0.353,0.506
					c-0.124-0.263-0.284-0.509-0.468-0.736c-0.704-0.868-1.686-1.363-2.811-1.319c-1.022,0.04-2.141,0.538-2.609,1.496
					c-0.42,0.859-0.344,2-0.064,2.893c0.021,0.066,0.045,0.132,0.072,0.199c-0.5,0.102-0.973,0.34-1.328,0.712
					c-0.285,0.298-0.51,0.681-0.581,1.09c-0.083,0.476,0.072,0.943,0.333,1.339c0.428,0.652,1.072,1.054,1.82,1.196
					c-0.399,0.414-0.755,0.949-0.78,1.534c-0.022,0.507,0.196,1.051,0.455,1.478c1.074,1.769,3.619,2.288,5.321,1.137
					c0.498-0.337,0.895-0.817,1.077-1.389c0.211,0.273,0.467,0.505,0.75,0.666c0.831,0.472,1.87,0.371,2.678-0.1
					c1.491-0.868,2.178-2.96,1.338-4.447c0.575-0.349,1.051-0.926,1.155-1.588C164.624,389.407,164.099,388.734,163.428,388.402z"/>
				<path style="fill:#418258;" d="M159.322,388.735c-0.206-0.185-0.436-0.278-0.673-0.306c-0.352-0.201-0.772-0.291-1.174-0.261
					c-0.662,0.049-1.283,0.398-1.729,0.882c-0.436,0.474-0.733,1.103-0.686,1.758c0.036,0.513,0.275,0.988,0.661,1.327
					c1.359,1.189,3.971,0.294,4.272-1.489C160.109,389.955,159.841,389.201,159.322,388.735z"/>
			</g>
			<g>
				<path style="fill:#F6AE46;" d="M80.329,460.654c-0.586-0.29-1.209-0.402-1.836-0.378c0.456-0.837,0.754-1.799,0.661-2.751
					c-0.102-1.048-0.851-2.057-1.922-2.271c-1.297-0.259-2.685,0.599-3.503,1.543c-0.183,0.211-0.339,0.439-0.472,0.677
					c-0.166-0.352-0.381-0.682-0.627-0.986c-0.943-1.162-2.258-1.826-3.765-1.767c-1.369,0.054-2.868,0.72-3.494,2.003
					c-0.562,1.151-0.46,2.679-0.086,3.875c0.028,0.088,0.06,0.177,0.096,0.267c-0.669,0.136-1.303,0.455-1.779,0.954
					c-0.381,0.399-0.683,0.913-0.779,1.46c-0.112,0.637,0.097,1.263,0.445,1.794c0.574,0.873,1.436,1.412,2.437,1.602
					c-0.535,0.554-1.011,1.27-1.045,2.054c-0.03,0.679,0.263,1.408,0.609,1.979c1.438,2.369,4.847,3.064,7.126,1.522
					c0.667-0.451,1.199-1.094,1.442-1.861c0.283,0.366,0.625,0.677,1.004,0.892c1.113,0.632,2.505,0.497,3.588-0.133
					c1.997-1.162,2.916-3.965,1.791-5.956c0.77-0.467,1.408-1.24,1.546-2.126C81.931,461.999,81.228,461.098,80.329,460.654z"/>
				<path style="fill:#418258;" d="M74.83,461.099c-0.276-0.248-0.583-0.372-0.902-0.41c-0.471-0.269-1.034-0.39-1.573-0.35
					c-0.887,0.066-1.718,0.533-2.315,1.181c-0.584,0.635-0.981,1.478-0.919,2.355c0.049,0.687,0.368,1.324,0.885,1.777
					c1.82,1.593,5.319,0.394,5.722-1.995C75.883,462.733,75.525,461.724,74.83,461.099z"/>
			</g>
			<g>
				<path style="fill:#F6AE46;" d="M325.161,456.434c-0.751-0.372-1.55-0.515-2.355-0.485c0.585-1.074,0.967-2.308,0.848-3.529
					c-0.131-1.344-1.092-2.639-2.465-2.913c-1.664-0.332-3.444,0.768-4.493,1.98c-0.234,0.271-0.434,0.562-0.606,0.869
					c-0.213-0.452-0.488-0.875-0.804-1.265c-1.21-1.491-2.897-2.342-4.829-2.266c-1.756,0.069-3.678,0.923-4.482,2.569
					c-0.721,1.476-0.59,3.436-0.11,4.971c0.035,0.113,0.077,0.227,0.123,0.342c-0.859,0.175-1.671,0.583-2.282,1.224
					c-0.489,0.512-0.876,1.171-0.999,1.873c-0.143,0.818,0.124,1.62,0.571,2.301c0.736,1.12,1.842,1.811,3.126,2.055
					c-0.686,0.711-1.297,1.63-1.341,2.634c-0.038,0.87,0.337,1.806,0.781,2.538c1.845,3.039,6.217,3.93,9.14,1.953
					c0.855-0.579,1.538-1.403,1.85-2.387c0.363,0.469,0.802,0.868,1.288,1.144c1.428,0.81,3.213,0.637,4.602-0.171
					c2.561-1.491,3.741-5.085,2.298-7.64c0.987-0.599,1.806-1.59,1.983-2.727C327.216,458.16,326.314,457.004,325.161,456.434z"/>
				<path style="fill:#418258;" d="M318.107,457.006c-0.354-0.318-0.748-0.477-1.157-0.526c-0.604-0.345-1.326-0.5-2.017-0.449
					c-1.138,0.085-2.204,0.683-2.969,1.515c-0.749,0.814-1.259,1.895-1.179,3.02c0.062,0.881,0.472,1.698,1.136,2.279
					c2.335,2.043,6.822,0.506,7.339-2.559C319.459,459.101,319,457.806,318.107,457.006z"/>
			</g>
			<g>
				<path style="fill:#F6AE46;" d="M302.348,386.123c-0.753-0.372-1.554-0.516-2.36-0.486c0.586-1.076,0.969-2.313,0.85-3.537
					c-0.131-1.347-1.094-2.645-2.471-2.92c-1.668-0.333-3.453,0.77-4.504,1.985c-0.235,0.271-0.435,0.564-0.607,0.871
					c-0.213-0.453-0.489-0.877-0.806-1.268c-1.213-1.494-2.904-2.348-4.841-2.272c-1.76,0.069-3.687,0.926-4.493,2.576
					c-0.723,1.48-0.592,3.445-0.11,4.983c0.035,0.113,0.078,0.228,0.124,0.343c-0.861,0.175-1.675,0.585-2.287,1.227
					c-0.49,0.514-0.878,1.173-1.001,1.878c-0.144,0.82,0.124,1.624,0.573,2.306c0.738,1.123,1.846,1.816,3.134,2.06
					c-0.688,0.712-1.3,1.633-1.344,2.641c-0.038,0.872,0.338,1.81,0.783,2.545c1.849,3.046,6.233,3.939,9.163,1.958
					c0.858-0.58,1.542-1.406,1.854-2.393c0.364,0.47,0.804,0.87,1.292,1.147c1.431,0.813,3.221,0.638,4.613-0.172
					c2.567-1.494,3.75-5.098,2.303-7.659c0.99-0.601,1.811-1.594,1.988-2.734C304.409,387.854,303.504,386.695,302.348,386.123z"/>
				<path style="fill:#418258;" d="M295.277,386.697c-0.355-0.319-0.75-0.478-1.16-0.527c-0.606-0.346-1.329-0.502-2.022-0.45
					c-1.141,0.085-2.21,0.685-2.977,1.518c-0.751,0.816-1.262,1.9-1.182,3.027c0.063,0.883,0.473,1.702,1.138,2.284
					c2.34,2.048,6.839,0.507,7.357-2.565C296.632,388.797,296.172,387.499,295.277,386.697z"/>
			</g>
			<g>
				<path style="fill:#F6AE46;" d="M279.38,464.906c-0.435-0.215-0.899-0.299-1.365-0.281c0.339-0.622,0.56-1.338,0.492-2.046
					c-0.076-0.779-0.633-1.53-1.429-1.688c-0.964-0.192-1.996,0.445-2.605,1.148c-0.136,0.157-0.252,0.326-0.351,0.504
					c-0.123-0.262-0.283-0.507-0.466-0.733c-0.701-0.864-1.679-1.358-2.799-1.314c-1.018,0.04-2.132,0.535-2.598,1.489
					c-0.418,0.856-0.342,1.992-0.064,2.881c0.02,0.065,0.045,0.132,0.071,0.198c-0.498,0.101-0.969,0.338-1.322,0.709
					c-0.283,0.297-0.508,0.678-0.579,1.086c-0.083,0.474,0.072,0.939,0.331,1.334c0.426,0.649,1.067,1.05,1.812,1.191
					c-0.398,0.412-0.752,0.944-0.777,1.527c-0.022,0.505,0.195,1.047,0.453,1.471c1.069,1.761,3.604,2.278,5.298,1.132
					c0.496-0.335,0.891-0.813,1.072-1.383c0.21,0.272,0.465,0.503,0.747,0.663c0.828,0.47,1.863,0.369,2.667-0.099
					c1.484-0.864,2.168-2.948,1.332-4.428c0.572-0.348,1.047-0.922,1.15-1.581C280.572,465.906,280.048,465.237,279.38,464.906z"/>
				<path style="fill:#418258;" d="M274.621,464.932c-0.35-0.2-0.769-0.29-1.169-0.26c-0.66,0.049-1.278,0.396-1.721,0.878
					c-0.434,0.472-0.73,1.099-0.684,1.751c0.036,0.511,0.274,0.984,0.658,1.321c1.477,1.292,4.439,0.114,4.276-1.99
					C275.707,465.434,275.189,465.001,274.621,464.932z"/>
			</g>
			<g>
				<rect x="193.27" y="373.204" style="fill:#972318;" width="4.308" height="105.507"/>
				<g>
					<g>
						<path style="fill:#972318;" d="M197.243,371.545c-0.006-0.004-0.013-0.006-0.019-0.01c0.032-0.006,0.062-0.06,0.017-0.061
							c-0.044-0.001-0.087,0-0.131-0.001c-0.183-0.081-0.4-0.096-0.593-0.096c-0.284-0.001-0.565,0.05-0.848,0.052
							c-0.032,0-0.06,0.024-0.081,0.051c-1.639,0.044-3.277,0.183-4.916,0.233c-2.216,0.067-4.448,0.118-6.663,0.021
							c-2.202-0.097-4.367-0.429-6.536-0.805c-1.61-0.279-3.735-0.61-5.048,0.634c-0.587,0.557-0.941,1.367-0.89,2.18
							c0.049,0.791,0.486,1.516,1.136,1.964c0.626,0.431,1.397,0.57,2.14,0.634c1.055,0.09,2.122,0.097,3.18,0.107
							c2.229,0.021,4.457-0.051,6.684-0.136c2.223-0.085,4.438-0.214,6.655-0.412c0.905-0.081,1.831-0.12,2.725-0.292
							c0.832-0.16,1.53-0.498,2.135-1.095c0.593-0.585,1.156-1.351,1.266-2.2C197.49,372.037,197.486,371.725,197.243,371.545z"/>
						<path style="fill:#972318;" d="M193.441,372.312c0.11,0.849,0.673,1.614,1.266,2.2c0.605,0.597,1.303,0.935,2.135,1.095
							c0.894,0.172,1.82,0.212,2.725,0.292c2.216,0.198,4.432,0.326,6.655,0.412c2.227,0.085,4.455,0.157,6.684,0.136
							c1.058-0.01,2.125-0.017,3.18-0.107c0.743-0.064,1.514-0.203,2.14-0.634c0.65-0.447,1.087-1.173,1.136-1.964
							c0.051-0.813-0.303-1.623-0.89-2.18c-1.313-1.245-3.437-0.914-5.048-0.634c-2.169,0.376-4.333,0.708-6.536,0.805
							c-2.216,0.097-4.447,0.047-6.663-0.021c-1.639-0.05-3.277-0.189-4.916-0.233c-0.021-0.027-0.049-0.051-0.081-0.051
							c-0.283-0.002-0.564-0.053-0.848-0.052c-0.193,0.001-0.41,0.016-0.593,0.096c-0.044,0.001-0.087,0-0.131,0.001
							c-0.045,0.001-0.016,0.055,0.017,0.061c-0.006,0.004-0.013,0.006-0.019,0.01C193.41,371.725,193.406,372.037,193.441,372.312z
							"/>
						<g>
							<path style="fill:#8C8D7C;" d="M200.624,373.401c0.099-0.192,0.173-0.397,0.209-0.62c0.083-0.519-0.02-1.065-0.226-1.544
								c-0.214-0.499-0.548-1.007-1.05-1.252c-0.434-0.212-0.918-0.197-1.385-0.131c0.023-0.122,0.014-0.246-0.06-0.358
								c-0.028-0.042-0.075-0.048-0.123-0.034c-0.455-0.634-1.426-0.775-2.151-0.741c-0.529,0.024-1.044,0.149-1.535,0.341
								c-0.24-0.224-0.693-0.104-0.972-0.032c-0.442,0.114-0.885,0.234-1.299,0.43c-0.746,0.354-1.339,1.022-1.499,1.848
								c-0.04,0.205-0.046,0.423,0.018,0.624c0.038,0.12,0.11,0.26,0.21,0.356c-0.411,0.704-0.74,1.461-0.887,2.264
								c-0.162,0.887-0.147,2.074,0.554,2.738c0.299,0.282,0.689,0.467,1.093,0.534c0.266,0.044,0.574,0.054,0.837-0.042
								c-0.018,0.296,0.133,0.6,0.409,0.743c0.439,0.228,0.98,0.089,1.42-0.066c0.541-0.191,1.051-0.452,1.539-0.753
								c0.586,0.251,1.182,0.404,1.813,0.477c0.602,0.069,1.176,0.095,1.724-0.205c0.983-0.54,1.753-1.653,1.877-2.772
								C201.21,374.566,201.032,373.901,200.624,373.401z"/>
							<g>
								<path style="fill:#C32F1D;" d="M190.836,371.995c-0.048-0.084-0.078-0.177-0.095-0.272c-0.037-0.216,0.004-0.44,0.071-0.645
									c0.136-0.413,0.391-0.823,0.731-1.098c0.41-0.332,0.932-0.51,1.433-0.652c0.344-0.098,0.745-0.244,1.109-0.177
									c-0.319,0.141-0.626,0.309-0.916,0.5c-0.803,0.529-1.492,1.228-2.026,2.026c-0.086,0.128-0.169,0.259-0.25,0.391
									C190.873,372.045,190.851,372.022,190.836,371.995z"/>
								<path style="fill:#C32F1D;" d="M192.547,377.381c-0.031,0.008-0.062,0.025-0.081,0.054c-0.01,0.015-0.015,0.032-0.023,0.047
									c-0.029,0.022-0.061,0.041-0.097,0.056c-0.353,0.146-0.837,0.035-1.17-0.116c-0.354-0.161-0.67-0.435-0.841-0.788
									c-0.206-0.427-0.25-0.969-0.237-1.436c0.027-0.987,0.399-1.928,0.885-2.775c0.453-0.789,1.002-1.513,1.699-2.104
									c0.767-0.65,1.689-1.139,2.69-1.292c0.472-0.072,0.968-0.076,1.434,0.038c0.403,0.098,0.738,0.296,1.044,0.56
									c0.001,0.015,0.005,0.029,0.015,0.043c0.092,0.139-0.005,0.344-0.071,0.472c-0.127,0.245-0.302,0.467-0.48,0.677
									c-0.372,0.441-0.785,0.844-1.189,1.255c-0.519,0.527-0.937,1.16-1.367,1.76c-0.63,0.878-1.178,1.798-1.716,2.735
									c-0.123,0.214-0.245,0.428-0.375,0.638C192.63,377.267,192.591,377.327,192.547,377.381z"/>
								<path style="fill:#C32F1D;" d="M195.126,377.801c-0.477,0.252-1.004,0.507-1.544,0.579
									c-0.258,0.034-0.558,0.013-0.763-0.167c-0.144-0.126-0.247-0.352-0.231-0.555c0.001-0.001,0.003-0.002,0.004-0.003
									c0.132-0.101,0.228-0.24,0.315-0.38c0.156-0.251,0.301-0.509,0.448-0.765c0.292-0.51,0.581-1.021,0.899-1.516
									c0.33-0.514,0.684-1.014,1.047-1.506c0.264-0.358,0.538-0.767,0.818-1.074c0.454-0.498,0.955-0.947,1.39-1.463
									c0.21-0.25,0.419-0.512,0.562-0.807c0.022-0.046,0.043-0.094,0.061-0.143c0.385-0.02,0.785-0.035,1.149,0.1
									c0.427,0.159,0.728,0.524,0.947,0.912c0.483,0.856,0.587,1.947-0.08,2.733c-0.331,0.39-0.747,0.707-1.126,1.048
									c-0.429,0.386-0.85,0.781-1.292,1.151C196.915,376.629,196.069,377.302,195.126,377.801z"/>
								<path style="fill:#C32F1D;" d="M200.851,375.507c-0.145,0.668-0.522,1.288-1.003,1.768
									c-0.247,0.246-0.534,0.465-0.857,0.601c-0.321,0.136-0.671,0.133-1.013,0.104c-0.365-0.031-0.737-0.069-1.094-0.152
									c-0.309-0.072-0.606-0.179-0.904-0.284c0.449-0.294,0.88-0.618,1.296-0.952c0.501-0.402,0.986-0.822,1.462-1.255
									c0.457-0.416,0.948-0.809,1.38-1.252c0.152-0.156,0.287-0.322,0.401-0.501C200.828,374.192,201.001,374.815,200.851,375.507
									z"/>
							</g>
						</g>
					</g>
					<g>
						<path style="fill:#972318;" d="M197.243,419.287c-0.006-0.004-0.013-0.006-0.019-0.01c0.032-0.006,0.062-0.06,0.017-0.061
							c-0.044-0.001-0.087,0-0.131-0.001c-0.183-0.081-0.4-0.095-0.593-0.096c-0.284-0.001-0.565,0.05-0.848,0.052
							c-0.032,0-0.06,0.024-0.081,0.051c-1.639,0.044-3.277,0.183-4.916,0.233c-2.216,0.067-4.448,0.118-6.663,0.02
							c-2.202-0.097-4.367-0.429-6.536-0.805c-1.61-0.279-3.735-0.61-5.048,0.635c-0.587,0.557-0.941,1.367-0.89,2.18
							c0.049,0.791,0.486,1.516,1.136,1.964c0.626,0.431,1.397,0.57,2.14,0.634c1.055,0.09,2.122,0.097,3.18,0.107
							c2.229,0.021,4.457-0.051,6.684-0.136c2.223-0.085,4.438-0.214,6.655-0.411c0.905-0.081,1.831-0.12,2.725-0.292
							c0.832-0.16,1.53-0.498,2.135-1.095c0.593-0.585,1.156-1.351,1.266-2.2C197.49,419.78,197.486,419.467,197.243,419.287z"/>
						<path style="fill:#972318;" d="M193.441,420.054c0.11,0.849,0.673,1.614,1.266,2.2c0.605,0.597,1.303,0.935,2.135,1.095
							c0.894,0.172,1.82,0.212,2.725,0.292c2.216,0.198,4.432,0.326,6.655,0.411c2.227,0.085,4.455,0.157,6.684,0.136
							c1.058-0.01,2.125-0.017,3.18-0.107c0.743-0.064,1.514-0.203,2.14-0.634c0.65-0.447,1.087-1.173,1.136-1.964
							c0.051-0.813-0.303-1.623-0.89-2.18c-1.313-1.245-3.437-0.914-5.048-0.635c-2.169,0.376-4.333,0.708-6.536,0.805
							c-2.216,0.097-4.447,0.047-6.663-0.02c-1.639-0.05-3.277-0.189-4.916-0.233c-0.021-0.027-0.049-0.05-0.081-0.051
							c-0.283-0.003-0.564-0.053-0.848-0.052c-0.193,0.001-0.41,0.016-0.593,0.096c-0.044,0.001-0.087,0-0.131,0.001
							c-0.045,0.001-0.016,0.055,0.017,0.061c-0.006,0.004-0.013,0.006-0.019,0.01C193.41,419.467,193.406,419.78,193.441,420.054z"
							/>
						<g>
							<path style="fill:#8C8D7C;" d="M200.624,421.144c0.099-0.192,0.173-0.397,0.209-0.62c0.083-0.519-0.02-1.065-0.226-1.543
								c-0.214-0.499-0.548-1.008-1.05-1.252c-0.434-0.212-0.918-0.197-1.385-0.131c0.023-0.122,0.014-0.246-0.06-0.358
								c-0.028-0.042-0.075-0.048-0.123-0.034c-0.455-0.634-1.426-0.775-2.151-0.741c-0.529,0.024-1.044,0.149-1.535,0.341
								c-0.24-0.224-0.693-0.104-0.972-0.032c-0.442,0.114-0.885,0.234-1.299,0.43c-0.746,0.354-1.339,1.022-1.499,1.848
								c-0.04,0.205-0.046,0.423,0.018,0.624c0.038,0.12,0.11,0.26,0.21,0.356c-0.411,0.704-0.74,1.461-0.887,2.264
								c-0.162,0.887-0.147,2.074,0.554,2.738c0.299,0.282,0.689,0.467,1.093,0.534c0.266,0.044,0.574,0.055,0.837-0.042
								c-0.018,0.296,0.133,0.6,0.409,0.743c0.439,0.228,0.98,0.089,1.42-0.066c0.541-0.191,1.051-0.452,1.539-0.753
								c0.586,0.251,1.182,0.404,1.813,0.477c0.602,0.069,1.176,0.095,1.724-0.205c0.983-0.54,1.753-1.653,1.877-2.772
								C201.21,422.309,201.032,421.644,200.624,421.144z"/>
							<g>
								<path style="fill:#C32F1D;" d="M190.836,419.738c-0.048-0.084-0.078-0.177-0.095-0.272c-0.037-0.216,0.004-0.44,0.071-0.645
									c0.136-0.413,0.391-0.823,0.731-1.098c0.41-0.332,0.932-0.51,1.433-0.652c0.344-0.098,0.745-0.244,1.109-0.177
									c-0.319,0.141-0.626,0.309-0.916,0.5c-0.803,0.529-1.492,1.228-2.026,2.026c-0.086,0.128-0.169,0.259-0.25,0.391
									C190.873,419.787,190.851,419.765,190.836,419.738z"/>
								<path style="fill:#C32F1D;" d="M192.547,425.124c-0.031,0.008-0.062,0.025-0.081,0.054c-0.01,0.015-0.015,0.032-0.023,0.047
									c-0.029,0.022-0.061,0.041-0.097,0.056c-0.353,0.146-0.837,0.035-1.17-0.116c-0.354-0.161-0.67-0.435-0.841-0.788
									c-0.206-0.427-0.25-0.969-0.237-1.436c0.027-0.987,0.399-1.928,0.885-2.775c0.453-0.789,1.002-1.513,1.699-2.104
									c0.767-0.65,1.689-1.139,2.69-1.292c0.472-0.072,0.968-0.076,1.434,0.038c0.403,0.098,0.738,0.296,1.044,0.56
									c0.001,0.015,0.005,0.029,0.015,0.043c0.092,0.139-0.005,0.344-0.071,0.472c-0.127,0.245-0.302,0.467-0.48,0.678
									c-0.372,0.441-0.785,0.844-1.189,1.255c-0.519,0.527-0.937,1.16-1.367,1.76c-0.63,0.878-1.178,1.798-1.716,2.735
									c-0.123,0.214-0.245,0.428-0.375,0.638C192.63,425.01,192.591,425.07,192.547,425.124z"/>
								<path style="fill:#C32F1D;" d="M195.126,425.544c-0.477,0.252-1.004,0.507-1.544,0.579
									c-0.258,0.034-0.558,0.013-0.763-0.167c-0.144-0.126-0.247-0.352-0.231-0.555c0.001-0.001,0.003-0.002,0.004-0.003
									c0.132-0.101,0.228-0.24,0.315-0.38c0.156-0.251,0.301-0.509,0.448-0.765c0.292-0.51,0.581-1.021,0.899-1.516
									c0.33-0.514,0.684-1.014,1.047-1.506c0.264-0.358,0.538-0.767,0.818-1.074c0.454-0.498,0.955-0.947,1.39-1.463
									c0.21-0.25,0.419-0.512,0.562-0.807c0.022-0.046,0.043-0.094,0.061-0.143c0.385-0.02,0.785-0.035,1.149,0.1
									c0.427,0.159,0.728,0.525,0.947,0.912c0.483,0.856,0.587,1.947-0.08,2.732c-0.331,0.39-0.747,0.707-1.126,1.048
									c-0.429,0.386-0.85,0.781-1.292,1.151C196.915,424.371,196.069,425.045,195.126,425.544z"/>
								<path style="fill:#C32F1D;" d="M200.851,423.25c-0.145,0.668-0.522,1.288-1.003,1.768c-0.247,0.246-0.534,0.465-0.857,0.601
									c-0.321,0.136-0.671,0.133-1.013,0.104c-0.365-0.031-0.737-0.069-1.094-0.152c-0.309-0.072-0.606-0.179-0.904-0.284
									c0.449-0.294,0.88-0.618,1.296-0.952c0.501-0.402,0.986-0.822,1.462-1.255c0.457-0.416,0.948-0.809,1.38-1.251
									c0.152-0.156,0.287-0.322,0.401-0.501C200.828,421.935,201.001,422.558,200.851,423.25z"/>
							</g>
						</g>
					</g>
					<g>
						<path style="fill:#972318;" d="M197.243,467.03c-0.006-0.004-0.013-0.006-0.019-0.01c0.032-0.006,0.062-0.06,0.017-0.061
							c-0.044-0.001-0.087,0-0.131-0.001c-0.183-0.081-0.4-0.095-0.593-0.096c-0.284-0.001-0.565,0.05-0.848,0.052
							c-0.032,0-0.06,0.024-0.081,0.051c-1.639,0.044-3.277,0.183-4.916,0.233c-2.216,0.067-4.448,0.118-6.663,0.021
							c-2.202-0.097-4.367-0.429-6.536-0.805c-1.61-0.279-3.735-0.61-5.048,0.634c-0.587,0.557-0.941,1.367-0.89,2.18
							c0.049,0.791,0.486,1.516,1.136,1.964c0.626,0.431,1.397,0.57,2.14,0.634c1.055,0.09,2.122,0.097,3.18,0.107
							c2.229,0.021,4.457-0.051,6.684-0.136c2.223-0.085,4.438-0.214,6.655-0.411c0.905-0.081,1.831-0.12,2.725-0.292
							c0.832-0.16,1.53-0.498,2.135-1.095c0.593-0.585,1.156-1.351,1.266-2.2C197.49,467.522,197.486,467.21,197.243,467.03z"/>
						<path style="fill:#972318;" d="M193.441,467.797c0.11,0.849,0.673,1.614,1.266,2.2c0.605,0.597,1.303,0.935,2.135,1.095
							c0.894,0.172,1.82,0.212,2.725,0.292c2.216,0.198,4.432,0.326,6.655,0.411c2.227,0.085,4.455,0.157,6.684,0.136
							c1.058-0.01,2.125-0.017,3.18-0.107c0.743-0.064,1.514-0.203,2.14-0.634c0.65-0.447,1.087-1.172,1.136-1.964
							c0.051-0.813-0.303-1.623-0.89-2.18c-1.313-1.245-3.437-0.913-5.048-0.634c-2.169,0.376-4.333,0.708-6.536,0.805
							c-2.216,0.097-4.447,0.047-6.663-0.021c-1.639-0.05-3.277-0.189-4.916-0.233c-0.021-0.027-0.049-0.051-0.081-0.051
							c-0.283-0.002-0.564-0.053-0.848-0.052c-0.193,0.001-0.41,0.016-0.593,0.096c-0.044,0.001-0.087,0-0.131,0.001
							c-0.045,0.001-0.016,0.054,0.017,0.061c-0.006,0.004-0.013,0.006-0.019,0.01C193.41,467.21,193.406,467.522,193.441,467.797z"
							/>
						<g>
							<path style="fill:#8C8D7C;" d="M200.624,468.886c0.099-0.192,0.173-0.397,0.209-0.62c0.083-0.519-0.02-1.064-0.226-1.543
								c-0.214-0.499-0.548-1.008-1.05-1.252c-0.434-0.212-0.918-0.197-1.385-0.131c0.023-0.122,0.014-0.246-0.06-0.358
								c-0.028-0.042-0.075-0.048-0.123-0.034c-0.455-0.634-1.426-0.775-2.151-0.741c-0.529,0.024-1.044,0.149-1.535,0.341
								c-0.24-0.224-0.693-0.104-0.972-0.032c-0.442,0.114-0.885,0.234-1.299,0.43c-0.746,0.354-1.339,1.022-1.499,1.848
								c-0.04,0.204-0.046,0.423,0.018,0.624c0.038,0.12,0.11,0.26,0.21,0.356c-0.411,0.704-0.74,1.461-0.887,2.264
								c-0.162,0.887-0.147,2.074,0.554,2.738c0.299,0.282,0.689,0.467,1.093,0.534c0.266,0.044,0.574,0.054,0.837-0.042
								c-0.018,0.296,0.133,0.6,0.409,0.743c0.439,0.228,0.98,0.089,1.42-0.066c0.541-0.191,1.051-0.452,1.539-0.753
								c0.586,0.251,1.182,0.404,1.813,0.477c0.602,0.069,1.176,0.095,1.724-0.205c0.983-0.54,1.753-1.653,1.877-2.772
								C201.21,470.051,201.032,469.386,200.624,468.886z"/>
							<g>
								<path style="fill:#C32F1D;" d="M190.836,467.48c-0.048-0.084-0.078-0.177-0.095-0.272c-0.037-0.216,0.004-0.44,0.071-0.645
									c0.136-0.413,0.391-0.823,0.731-1.098c0.41-0.332,0.932-0.51,1.433-0.652c0.344-0.098,0.745-0.244,1.109-0.177
									c-0.319,0.141-0.626,0.309-0.916,0.5c-0.803,0.529-1.492,1.229-2.026,2.026c-0.086,0.128-0.169,0.259-0.25,0.391
									C190.873,467.53,190.851,467.508,190.836,467.48z"/>
								<path style="fill:#C32F1D;" d="M192.547,472.867c-0.031,0.008-0.062,0.025-0.081,0.054c-0.01,0.015-0.015,0.032-0.023,0.047
									c-0.029,0.022-0.061,0.041-0.097,0.056c-0.353,0.146-0.837,0.035-1.17-0.116c-0.354-0.161-0.67-0.434-0.841-0.788
									c-0.206-0.427-0.25-0.969-0.237-1.436c0.027-0.987,0.399-1.928,0.885-2.775c0.453-0.789,1.002-1.513,1.699-2.104
									c0.767-0.65,1.689-1.139,2.69-1.292c0.472-0.072,0.968-0.076,1.434,0.038c0.403,0.098,0.738,0.297,1.044,0.56
									c0.001,0.015,0.005,0.03,0.015,0.043c0.092,0.139-0.005,0.344-0.071,0.472c-0.127,0.245-0.302,0.467-0.48,0.677
									c-0.372,0.441-0.785,0.844-1.189,1.255c-0.519,0.527-0.937,1.16-1.367,1.76c-0.63,0.878-1.178,1.798-1.716,2.735
									c-0.123,0.214-0.245,0.428-0.375,0.638C192.63,472.752,192.591,472.812,192.547,472.867z"/>
								<path style="fill:#C32F1D;" d="M195.126,473.286c-0.477,0.252-1.004,0.508-1.544,0.579
									c-0.258,0.035-0.558,0.013-0.763-0.167c-0.144-0.126-0.247-0.352-0.231-0.555c0.001-0.001,0.003-0.002,0.004-0.003
									c0.132-0.101,0.228-0.24,0.315-0.38c0.156-0.251,0.301-0.509,0.448-0.765c0.292-0.51,0.581-1.021,0.899-1.516
									c0.33-0.514,0.684-1.014,1.047-1.506c0.264-0.358,0.538-0.767,0.818-1.074c0.454-0.498,0.955-0.947,1.39-1.463
									c0.21-0.25,0.419-0.512,0.562-0.807c0.022-0.046,0.043-0.094,0.061-0.143c0.385-0.02,0.785-0.035,1.149,0.1
									c0.427,0.16,0.728,0.525,0.947,0.912c0.483,0.856,0.587,1.947-0.08,2.733c-0.331,0.39-0.747,0.707-1.126,1.048
									c-0.429,0.386-0.85,0.781-1.292,1.151C196.915,472.114,196.069,472.787,195.126,473.286z"/>
								<path style="fill:#C32F1D;" d="M200.851,470.992c-0.145,0.668-0.522,1.288-1.003,1.768
									c-0.247,0.246-0.534,0.465-0.857,0.602c-0.321,0.136-0.671,0.133-1.013,0.104c-0.365-0.031-0.737-0.069-1.094-0.152
									c-0.309-0.072-0.606-0.179-0.904-0.284c0.449-0.294,0.88-0.618,1.296-0.952c0.501-0.402,0.986-0.822,1.462-1.255
									c0.457-0.416,0.948-0.809,1.38-1.251c0.152-0.156,0.287-0.322,0.401-0.501C200.828,469.677,201.001,470.301,200.851,470.992
									z"/>
							</g>
						</g>
					</g>
				</g>
			</g>
			<g>
				<path style="fill:#F6AE46;" d="M300.042,448.664c0.291-0.998,0.339-2.102,0.002-3.094c-0.211-0.621-0.565-1.152-0.999-1.621
					c1.573-0.709,2.883-1.995,3.694-3.511c0.512-0.958,0.846-2.037,0.897-3.126c0.053-1.146-0.287-2.276-0.867-3.258
					c-0.603-1.022-1.474-1.91-2.525-2.471c-1.075-0.574-2.233-0.677-3.422-0.483c-0.253,0.042-0.504,0.097-0.754,0.159
					c0.328-0.532,0.613-1.095,0.839-1.698c0.936-2.494,0.256-5.56-1.866-7.256c-2.23-1.783-5.444-1.392-7.801-0.075
					c-1.181,0.66-2.221,1.601-2.958,2.738c-0.024,0.037-0.046,0.077-0.069,0.114c-0.061-0.097-0.122-0.194-0.187-0.288
					c-0.629-0.92-1.47-1.731-2.514-2.158c-1.02-0.417-2.139-0.471-3.206-0.203c-2.37,0.597-4.368,2.426-5.094,4.766
					c-0.553,1.78-0.3,3.71,0.491,5.379c-1.847,0.094-3.615,0.902-4.753,2.424c-1.535,2.052-1.622,4.807-0.788,7.158
					c0.789,2.226,2.45,4.514,4.889,5.022c1.063,0.221,2.154,0.099,3.182-0.256c-0.273,0.548-0.464,1.129-0.491,1.74
					c-0.101,2.257,1.691,4.238,3.487,5.37c1.896,1.196,4.377,1.766,6.576,1.202c0.951-0.244,1.921-0.696,2.563-1.461
					c0.608-0.724,1.001-1.604,1.295-2.496c0.008-0.024,0.013-0.05,0.021-0.074c0.107,0.16,0.217,0.317,0.334,0.47
					c0.64,0.831,1.45,1.585,2.465,1.915c1.109,0.361,2.328,0.104,3.361-0.372C297.811,452.316,299.425,450.775,300.042,448.664z"/>
				<path style="fill:#D4953C;" d="M290.557,426.09c0.05-0.072-0.101-0.089-0.141-0.034c-2.23,3.044-3.612,6.852-4.103,10.581
					c-0.02,0.151,0.255,0.138,0.283,0.009C287.378,432.94,288.376,429.245,290.557,426.09z"/>
				<path style="fill:#D4953C;" d="M292.07,427.724c0.083-0.125-0.175-0.154-0.242-0.058c-1.697,2.42-2.79,5.152-3.991,7.835
					c-0.11,0.246,0.341,0.3,0.431,0.103C289.476,432.957,290.456,430.163,292.07,427.724z"/>
				<path style="fill:#D4953C;" d="M298.384,435.64c-0.952,0.018-1.884,0.198-2.818,0.369c-0.891,0.164-1.781,0.324-2.662,0.536
					c-1.736,0.419-3.502,0.964-5.002,1.958c-0.272,0.18,0.087,0.376,0.293,0.261c1.538-0.86,3.193-1.473,4.897-1.912
					c0.812-0.209,1.633-0.374,2.454-0.541c0.923-0.188,1.845-0.395,2.79-0.432C298.515,435.872,298.6,435.636,298.384,435.64z"/>
				<path style="fill:#D4953C;" d="M298.258,438.726c-1.212-0.622-2.742-0.216-4.031-0.126c-0.87,0.061-1.737,0.159-2.602,0.268
					c-0.896,0.113-1.809,0.194-2.693,0.38c-0.275,0.058-0.354,0.435-0.007,0.424c1.635-0.053,3.266-0.435,4.895-0.589
					c0.668-0.063,1.334-0.129,2.002-0.199c0.702-0.074,1.477-0.159,2.138,0.146C298.162,439.123,298.53,438.865,298.258,438.726z"/>
				<path style="fill:#D4953C;" d="M285.131,435.949c-0.051-0.79-0.401-1.558-0.722-2.276c-0.345-0.771-0.749-1.511-1.185-2.234
					c-0.458-0.762-0.906-1.534-1.397-2.275c-0.216-0.327-0.435-0.659-0.688-0.959c-0.309-0.366-0.667-0.681-0.888-1.114
					c-0.023-0.046-0.124-0.015-0.102,0.039c0.153,0.361,0.382,0.665,0.61,0.981c0.258,0.357,0.485,0.734,0.702,1.116
					c0.438,0.769,0.86,1.547,1.287,2.322c0.385,0.698,0.749,1.409,1.066,2.14c0.337,0.778,0.536,1.61,0.9,2.373
					C284.799,436.233,285.143,436.135,285.131,435.949z"/>
				<path style="fill:#D4953C;" d="M284.865,436.519c-0.798-1.54-1.961-2.899-3.113-4.186c-1.188-1.327-2.313-2.81-3.728-3.905
					c-0.088-0.068-0.309,0.036-0.198,0.127c1.343,1.101,2.382,2.564,3.495,3.887c1.134,1.348,2.115,2.774,3.05,4.265
					C284.5,436.916,284.996,436.773,284.865,436.519z"/>
				<path style="fill:#D4953C;" d="M284.464,438.268c-3.883-1.43-8.145-0.426-12.119-0.059c-0.056,0.005-0.065,0.082-0.001,0.08
					c3.958-0.099,7.953-0.833,11.816,0.38C284.395,438.744,284.786,438.387,284.464,438.268z"/>
				<path style="fill:#D4953C;" d="M283.167,439.033c-3.657,0.351-7.198,1.494-10.873,1.711c-0.132,0.008-0.198,0.184-0.035,0.179
					c3.701-0.114,7.318-1.004,10.983-1.446C283.628,439.432,283.545,438.997,283.167,439.033z"/>
				<path style="fill:#D4953C;" d="M284.527,440.445c0.162-0.266-0.351-0.299-0.484-0.116c-1.154,1.582-2.107,3.314-2.939,5.084
					c-0.816,1.737-1.448,3.553-1.851,5.431c-0.029,0.133,0.222,0.121,0.254,0.008C280.552,447.09,282.515,443.753,284.527,440.445z"
					/>
				<path style="fill:#D4953C;" d="M282.836,451.413c0.48-3.393,3.241-6.204,2.874-9.756c-0.029-0.277-0.568-0.178-0.56,0.094
					c0.107,3.459-2.348,6.278-2.67,9.651C282.463,451.591,282.813,451.579,282.836,451.413z"/>
				<path style="fill:#D4953C;" d="M296.014,447.756c-0.342-1.906-1.614-3.44-3.052-4.664c-1.457-1.242-3.115-2.335-4.803-3.237
					c-0.155-0.083-0.547,0.117-0.336,0.271c1.503,1.096,3.167,1.936,4.611,3.122c1.453,1.193,2.769,2.685,3.129,4.585
					C295.605,448.051,296.054,447.975,296.014,447.756z"/>
				<path style="fill:#D4953C;" d="M293.277,449.307c-0.233-0.312-0.292-0.691-0.421-1.05c-0.145-0.403-0.338-0.79-0.556-1.158
					c-0.452-0.763-1.022-1.449-1.596-2.122c-0.606-0.71-1.24-1.395-1.853-2.099c-0.627-0.72-1.19-1.491-1.837-2.193
					c-0.095-0.104-0.364-0.005-0.296,0.148c0.362,0.824,0.959,1.5,1.544,2.175c0.627,0.725,1.282,1.424,1.921,2.138
					c0.614,0.686,1.225,1.389,1.706,2.177c0.235,0.385,0.438,0.789,0.591,1.214c0.121,0.337,0.245,0.655,0.49,0.923
					C293.062,449.566,293.381,449.447,293.277,449.307z"/>
				<path style="fill:#418258;" d="M292.356,438.126c0.016-1.814-1.068-3.566-2.612-4.488c-1.672-0.999-3.75-0.789-5.552-0.324
					c-0.195,0.05-0.463,0.183-0.421,0.43c0.001,0.006,0.004,0.011,0.006,0.017c-0.234,0.116-0.464,0.243-0.679,0.395
					c-2.278,1.611-3.167,5.131-1.505,7.469c1.381,1.943,4.029,2.642,6.284,2.096c1.147-0.277,2.233-0.853,3.015-1.751
					C291.793,440.935,292.344,439.5,292.356,438.126z"/>
			</g>
			<g>
				<path style="fill:#F6AE46;" d="M266.843,409.043c0.143-0.488,0.166-1.029,0.001-1.515c-0.103-0.304-0.277-0.564-0.489-0.793
					c0.77-0.347,1.411-0.977,1.808-1.719c0.251-0.469,0.414-0.997,0.439-1.53c0.026-0.561-0.14-1.114-0.424-1.595
					c-0.295-0.5-0.722-0.935-1.236-1.209c-0.526-0.281-1.093-0.332-1.675-0.236c-0.124,0.02-0.247,0.048-0.369,0.078
					c0.161-0.261,0.3-0.536,0.411-0.831c0.458-1.221,0.125-2.721-0.914-3.552c-1.092-0.873-2.665-0.682-3.818-0.037
					c-0.578,0.323-1.087,0.784-1.448,1.34c-0.012,0.018-0.022,0.037-0.034,0.056c-0.03-0.047-0.06-0.095-0.091-0.141
					c-0.308-0.45-0.72-0.847-1.23-1.056c-0.499-0.204-1.047-0.231-1.569-0.099c-1.16,0.292-2.138,1.188-2.493,2.333
					c-0.271,0.871-0.147,1.816,0.24,2.633c-0.904,0.046-1.769,0.442-2.327,1.186c-0.751,1.004-0.794,2.353-0.386,3.504
					c0.387,1.089,1.199,2.209,2.393,2.458c0.52,0.108,1.054,0.048,1.558-0.125c-0.133,0.268-0.227,0.553-0.24,0.852
					c-0.049,1.105,0.828,2.074,1.707,2.629c0.928,0.585,2.143,0.865,3.219,0.588c0.465-0.12,0.94-0.341,1.255-0.715
					c0.297-0.354,0.49-0.785,0.634-1.222c0.004-0.012,0.007-0.024,0.01-0.036c0.052,0.078,0.106,0.155,0.164,0.23
					c0.313,0.407,0.71,0.776,1.207,0.938c0.543,0.177,1.14,0.051,1.645-0.182C265.751,410.83,266.542,410.076,266.843,409.043z"/>
				<path style="fill:#D4953C;" d="M262.201,397.993c0.024-0.035-0.049-0.044-0.069-0.017c-1.091,1.49-1.768,3.354-2.008,5.179
					c-0.01,0.074,0.125,0.068,0.138,0.004C260.644,401.346,261.133,399.537,262.201,397.993z"/>
				<path style="fill:#D4953C;" d="M262.941,398.793c0.041-0.061-0.086-0.076-0.118-0.028c-0.831,1.185-1.366,2.522-1.954,3.835
					c-0.054,0.121,0.167,0.147,0.211,0.051C261.672,401.354,262.151,399.987,262.941,398.793z"/>
				<path style="fill:#D4953C;" d="M266.032,402.667c-0.466,0.009-0.922,0.097-1.379,0.181c-0.436,0.08-0.872,0.158-1.303,0.262
					c-0.85,0.205-1.714,0.472-2.449,0.958c-0.133,0.088,0.043,0.184,0.143,0.128c0.753-0.421,1.563-0.721,2.397-0.936
					c0.398-0.102,0.799-0.183,1.201-0.265c0.452-0.092,0.903-0.193,1.366-0.212C266.096,402.781,266.138,402.665,266.032,402.667z"
					/>
				<path style="fill:#D4953C;" d="M265.97,404.178c-0.593-0.305-1.342-0.106-1.973-0.062c-0.426,0.03-0.85,0.078-1.273,0.131
					c-0.439,0.055-0.885,0.095-1.318,0.186c-0.134,0.028-0.173,0.213-0.003,0.207c0.801-0.026,1.598-0.213,2.396-0.288
					c0.327-0.031,0.653-0.063,0.98-0.098c0.344-0.036,0.723-0.078,1.047,0.072C265.923,404.372,266.103,404.246,265.97,404.178z"/>
				<path style="fill:#D4953C;" d="M259.545,402.819c-0.025-0.387-0.196-0.763-0.353-1.114c-0.169-0.377-0.367-0.74-0.58-1.094
					c-0.224-0.373-0.443-0.751-0.684-1.114c-0.106-0.16-0.213-0.323-0.337-0.47c-0.151-0.179-0.326-0.334-0.435-0.546
					c-0.011-0.022-0.061-0.007-0.05,0.019c0.075,0.177,0.187,0.326,0.299,0.48c0.126,0.174,0.237,0.359,0.344,0.546
					c0.214,0.376,0.421,0.757,0.63,1.137c0.188,0.341,0.367,0.69,0.522,1.048c0.165,0.381,0.262,0.788,0.441,1.161
					C259.382,402.958,259.551,402.91,259.545,402.819z"/>
				<path style="fill:#D4953C;" d="M259.414,403.098c-0.391-0.754-0.96-1.419-1.524-2.049c-0.581-0.65-1.132-1.376-1.825-1.912
					c-0.043-0.033-0.151,0.018-0.097,0.062c0.657,0.539,1.166,1.255,1.711,1.903c0.555,0.66,1.035,1.358,1.493,2.088
					C259.236,403.292,259.479,403.222,259.414,403.098z"/>
				<path style="fill:#D4953C;" d="M259.218,403.954c-1.901-0.7-3.987-0.208-5.932-0.029c-0.027,0.003-0.032,0.04-0.001,0.039
					c1.938-0.048,3.893-0.408,5.784,0.186C259.184,404.186,259.376,404.012,259.218,403.954z"/>
				<path style="fill:#D4953C;" d="M258.583,404.328c-1.79,0.172-3.523,0.731-5.322,0.838c-0.064,0.004-0.097,0.09-0.017,0.088
					c1.811-0.056,3.582-0.491,5.376-0.708C258.809,404.523,258.768,404.311,258.583,404.328z"/>
				<path style="fill:#D4953C;" d="M259.249,405.019c0.079-0.13-0.172-0.146-0.237-0.057c-0.565,0.774-1.031,1.622-1.439,2.488
					c-0.4,0.85-0.709,1.739-0.906,2.658c-0.014,0.065,0.109,0.059,0.124,0.004C257.303,408.272,258.264,406.639,259.249,405.019z"/>
				<path style="fill:#D4953C;" d="M258.422,410.388c0.235-1.661,1.586-3.037,1.407-4.775c-0.014-0.135-0.278-0.087-0.274,0.046
					c0.052,1.693-1.149,3.073-1.307,4.724C258.239,410.475,258.41,410.469,258.422,410.388z"/>
				<path style="fill:#D4953C;" d="M264.872,408.598c-0.168-0.933-0.79-1.684-1.494-2.283c-0.713-0.608-1.525-1.143-2.351-1.585
					c-0.076-0.04-0.268,0.057-0.165,0.133c0.736,0.537,1.55,0.948,2.257,1.528c0.711,0.584,1.355,1.314,1.532,2.244
					C264.672,408.742,264.891,408.705,264.872,408.598z"/>
				<path style="fill:#D4953C;" d="M263.532,409.357c-0.114-0.153-0.143-0.338-0.206-0.514c-0.071-0.197-0.166-0.387-0.272-0.567
					c-0.221-0.373-0.5-0.709-0.781-1.039c-0.297-0.348-0.607-0.683-0.907-1.027c-0.307-0.353-0.583-0.73-0.899-1.074
					c-0.047-0.051-0.178-0.003-0.145,0.073c0.177,0.403,0.47,0.734,0.756,1.065c0.307,0.355,0.628,0.697,0.94,1.047
					c0.301,0.336,0.599,0.68,0.835,1.066c0.115,0.189,0.214,0.386,0.289,0.594c0.059,0.165,0.12,0.321,0.24,0.452
					C263.427,409.484,263.583,409.426,263.532,409.357z"/>
				<path style="fill:#418258;" d="M263.081,403.884c0.008-0.888-0.523-1.745-1.279-2.197c-0.818-0.489-1.836-0.386-2.718-0.159
					c-0.096,0.025-0.227,0.089-0.206,0.211c0.001,0.003,0.002,0.005,0.003,0.008c-0.115,0.057-0.227,0.119-0.332,0.193
					c-1.115,0.789-1.55,2.512-0.737,3.656c0.676,0.951,1.972,1.293,3.076,1.026c0.561-0.136,1.093-0.417,1.476-0.857
					C262.806,405.259,263.075,404.556,263.081,403.884z"/>
			</g>
			<g>
				<path style="fill:#F6AE46;" d="M216.161,461.301c0.11-0.378,0.128-0.796,0.001-1.171c-0.08-0.235-0.214-0.436-0.378-0.613
					c0.595-0.268,1.091-0.755,1.398-1.329c0.194-0.363,0.32-0.771,0.339-1.183c0.02-0.434-0.108-0.861-0.328-1.233
					c-0.228-0.387-0.558-0.723-0.956-0.935c-0.407-0.217-0.845-0.256-1.295-0.183c-0.096,0.016-0.191,0.037-0.285,0.06
					c0.124-0.202,0.232-0.415,0.317-0.643c0.354-0.944,0.097-2.104-0.706-2.746c-0.844-0.675-2.061-0.527-2.952-0.028
					c-0.447,0.25-0.84,0.606-1.12,1.036c-0.009,0.014-0.017,0.029-0.026,0.043c-0.023-0.037-0.046-0.074-0.071-0.109
					c-0.238-0.348-0.556-0.655-0.951-0.817c-0.386-0.158-0.81-0.178-1.213-0.077c-0.897,0.226-1.653,0.918-1.928,1.803
					c-0.209,0.674-0.114,1.404,0.186,2.036c-0.699,0.035-1.368,0.342-1.799,0.917c-0.581,0.777-0.614,1.819-0.298,2.709
					c0.299,0.842,0.927,1.708,1.85,1.901c0.402,0.084,0.815,0.037,1.204-0.097c-0.103,0.208-0.175,0.427-0.186,0.659
					c-0.038,0.854,0.64,1.604,1.32,2.032c0.718,0.453,1.657,0.668,2.489,0.455c0.36-0.092,0.727-0.263,0.97-0.553
					c0.23-0.274,0.379-0.607,0.49-0.944c0.003-0.009,0.005-0.019,0.008-0.028c0.041,0.06,0.082,0.12,0.127,0.178
					c0.242,0.314,0.549,0.6,0.933,0.725c0.42,0.136,0.881,0.039,1.272-0.141C215.317,462.683,215.928,462.1,216.161,461.301z"/>
				<path style="fill:#D4953C;" d="M212.571,452.757c0.019-0.027-0.038-0.034-0.053-0.013c-0.844,1.152-1.367,2.593-1.553,4.004
					c-0.007,0.057,0.097,0.052,0.107,0.003C211.368,455.35,211.746,453.951,212.571,452.757z"/>
				<path style="fill:#D4953C;" d="M213.144,453.376c0.031-0.048-0.066-0.059-0.092-0.022c-0.642,0.916-1.056,1.95-1.51,2.965
					c-0.042,0.093,0.129,0.114,0.163,0.039C212.162,455.356,212.533,454.299,213.144,453.376z"/>
				<path style="fill:#D4953C;" d="M215.534,456.372c-0.36,0.007-0.713,0.075-1.066,0.14c-0.337,0.062-0.674,0.122-1.007,0.203
					c-0.657,0.159-1.326,0.365-1.893,0.741c-0.103,0.068,0.033,0.142,0.111,0.099c0.582-0.326,1.208-0.558,1.853-0.724
					c0.307-0.079,0.618-0.142,0.929-0.205c0.349-0.071,0.698-0.15,1.056-0.164C215.583,456.46,215.615,456.37,215.534,456.372z"/>
				<path style="fill:#D4953C;" d="M215.486,457.539c-0.459-0.236-1.038-0.082-1.525-0.048c-0.329,0.023-0.657,0.06-0.985,0.102
					c-0.339,0.043-0.685,0.073-1.019,0.144c-0.104,0.022-0.134,0.165-0.003,0.16c0.619-0.02,1.236-0.165,1.853-0.223
					c0.253-0.024,0.505-0.049,0.757-0.075c0.266-0.028,0.559-0.06,0.809,0.055C215.449,457.69,215.589,457.592,215.486,457.539z"/>
				<path style="fill:#D4953C;" d="M210.518,456.489c-0.02-0.299-0.152-0.59-0.273-0.861c-0.13-0.292-0.284-0.572-0.448-0.845
					c-0.173-0.288-0.343-0.581-0.529-0.861c-0.082-0.124-0.165-0.249-0.26-0.363c-0.117-0.139-0.252-0.258-0.336-0.422
					c-0.009-0.017-0.047-0.005-0.038,0.015c0.058,0.137,0.145,0.252,0.231,0.371c0.097,0.135,0.184,0.278,0.266,0.422
					c0.166,0.291,0.325,0.586,0.487,0.879c0.145,0.264,0.283,0.533,0.403,0.81c0.128,0.294,0.203,0.609,0.341,0.898
					C210.392,456.596,210.522,456.559,210.518,456.489z"/>
				<path style="fill:#D4953C;" d="M210.417,456.704c-0.302-0.583-0.742-1.097-1.178-1.584c-0.45-0.502-0.875-1.064-1.411-1.478
					c-0.033-0.026-0.117,0.014-0.075,0.048c0.508,0.417,0.902,0.971,1.323,1.471c0.429,0.51,0.801,1.05,1.154,1.614
					C210.279,456.855,210.467,456.801,210.417,456.704z"/>
				<path style="fill:#D4953C;" d="M210.265,457.366c-1.469-0.541-3.082-0.161-4.587-0.022c-0.021,0.002-0.024,0.031,0,0.03
					c1.498-0.037,3.01-0.315,4.472,0.144C210.239,457.546,210.387,457.411,210.265,457.366z"/>
				<path style="fill:#D4953C;" d="M209.775,457.656c-1.384,0.133-2.724,0.565-4.115,0.648c-0.05,0.003-0.075,0.07-0.013,0.068
					c1.401-0.043,2.77-0.38,4.157-0.547C209.949,457.807,209.918,457.642,209.775,457.656z"/>
				<path style="fill:#D4953C;" d="M210.289,458.19c0.061-0.1-0.133-0.113-0.183-0.044c-0.437,0.599-0.797,1.254-1.112,1.924
					c-0.309,0.657-0.548,1.345-0.701,2.055c-0.011,0.05,0.084,0.046,0.096,0.003C208.785,460.705,209.528,459.442,210.289,458.19z"
					/>
				<path style="fill:#D4953C;" d="M209.649,462.341c0.182-1.284,1.227-2.348,1.088-3.692c-0.011-0.105-0.215-0.067-0.212,0.036
					c0.04,1.309-0.889,2.376-1.01,3.652C209.508,462.408,209.64,462.404,209.649,462.341z"/>
				<path style="fill:#D4953C;" d="M214.637,460.957c-0.13-0.721-0.611-1.302-1.155-1.765c-0.552-0.47-1.179-0.884-1.818-1.225
					c-0.059-0.031-0.207,0.044-0.127,0.103c0.569,0.415,1.198,0.733,1.745,1.182c0.55,0.451,1.048,1.016,1.184,1.735
					C214.482,461.069,214.652,461.04,214.637,460.957z"/>
				<path style="fill:#D4953C;" d="M213.601,461.544c-0.088-0.118-0.111-0.262-0.159-0.397c-0.055-0.152-0.128-0.299-0.21-0.438
					c-0.171-0.289-0.387-0.548-0.604-0.803c-0.229-0.269-0.469-0.528-0.701-0.794c-0.237-0.273-0.451-0.564-0.695-0.83
					c-0.036-0.039-0.138-0.002-0.112,0.056c0.137,0.312,0.363,0.568,0.584,0.823c0.237,0.274,0.485,0.539,0.727,0.809
					c0.232,0.26,0.464,0.525,0.646,0.824c0.089,0.146,0.166,0.298,0.223,0.459c0.046,0.128,0.093,0.248,0.185,0.349
					C213.52,461.642,213.64,461.597,213.601,461.544z"/>
				<path style="fill:#418258;" d="M213.252,457.313c0.006-0.687-0.404-1.349-0.989-1.699c-0.633-0.378-1.419-0.299-2.101-0.123
					c-0.074,0.019-0.175,0.069-0.159,0.163c0,0.002,0.002,0.004,0.002,0.007c-0.089,0.044-0.176,0.092-0.257,0.15
					c-0.862,0.61-1.198,1.942-0.57,2.827c0.523,0.736,1.525,1,2.378,0.793c0.434-0.105,0.845-0.323,1.141-0.663
					C213.039,458.376,213.248,457.832,213.252,457.313z"/>
			</g>
		</g>
	</g>
	<g>
		<g>
			<path style="fill:#EFB291;" d="M326.755,213.664c-1.51-10.916-12.067-17.945-23.387-15.704
				c-6.475,1.282-11.835,6.231-15.233,11.398c-1.981,3.012-3.381,6.402-4.381,9.835c-3.225,5.925-5.366,12.647-5.983,19.267
				c-0.437,4.688-1.156,13.287,3.453,16.595c4.495,3.226,12.857,0.421,17.372-1.334c5.733-2.229,10.738-5.84,15.008-10.057
				C321.643,235.725,328.351,225.203,326.755,213.664z"/>
			<path style="opacity:0.64;fill:#EB936D;" d="M286.278,256.526c1.046-2.231,2.062-4.476,3.04-6.738
				c3.899-9.019,7.276-18.312,9.579-27.874c1.852-7.69,3.045-15.63,2.901-23.556c-5.769,1.709-10.543,6.259-13.662,11.001
				c-1.981,3.012-3.381,6.402-4.381,9.835c-3.225,5.925-5.366,12.647-5.983,19.267c-0.437,4.688-1.156,13.287,3.453,16.595
				C282.615,256.053,284.376,256.472,286.278,256.526z"/>
			<path style="fill:#EB936D;" d="M321.613,213.19c-0.864-2.158-2.825-3.659-5.01-4.298c-5.029-1.47-10.874,1.315-14.696,4.453
				c-8.508,6.986-11.704,18.537-13.756,28.886c-0.12,0.606,0.84,0.323,0.971-0.092c0.52-1.639,1.048-3.304,1.601-4.973
				c0.009,1.259,0.119,2.51,0.246,3.637c0.25,2.212,1.272,4.3,3.596,4.795c5.612,1.193,10.596-4.94,13.94-8.373
				c0.314-0.323-0.242-0.517-0.496-0.304c-3.015,2.534-6.264,5.969-10.288,6.775c-3.24,0.649-4.249-1.783-4.683-4.438
				c-0.358-2.189-1.065-4.77-0.252-6.909c0.113-0.297,0.018-0.474-0.156-0.559c1.883-4.909,4.194-9.654,7.48-13.665
				c2.854-3.483,6.816-6.444,11.377-7.132c3.106-0.468,6.255,0.535,7.651,3.537c1.304,2.803,0.252,6.064,0.207,9.028
				c-0.005,0.352,0.599,0.108,0.649-0.131C320.711,220.049,323.027,216.72,321.613,213.19z"/>
		</g>
		<g>
			<path style="fill:#EFB291;" d="M78.601,243.664c4.27,4.217,9.276,7.828,15.008,10.057c4.515,1.756,12.877,4.561,17.372,1.334
				c4.61-3.309,3.89-11.908,3.453-16.595c-0.618-6.62-2.758-13.342-5.983-19.267c-0.999-3.432-2.4-6.823-4.381-9.835
				c-3.399-5.167-8.759-10.116-15.233-11.398c-11.319-2.241-21.876,4.788-23.386,15.704
				C63.854,225.203,70.562,235.725,78.601,243.664z"/>
			<path style="opacity:0.64;fill:#EB936D;" d="M105.928,256.526c-1.046-2.231-2.062-4.476-3.04-6.738
				c-3.899-9.019-7.276-18.312-9.579-27.874c-1.852-7.69-3.045-15.63-2.901-23.556c5.769,1.709,10.543,6.259,13.662,11.001
				c1.981,3.012,3.381,6.402,4.381,9.835c3.225,5.925,5.366,12.647,5.983,19.267c0.437,4.688,1.156,13.287-3.453,16.595
				C109.591,256.053,107.83,256.472,105.928,256.526z"/>
			<path style="fill:#EB936D;" d="M70.592,213.19c0.864-2.158,2.825-3.659,5.01-4.298c5.029-1.47,10.874,1.315,14.696,4.453
				c8.508,6.986,11.704,18.537,13.756,28.886c0.12,0.606-0.84,0.323-0.971-0.092c-0.521-1.639-1.048-3.304-1.601-4.973
				c-0.009,1.259-0.119,2.51-0.246,3.637c-0.25,2.212-1.271,4.3-3.596,4.795c-5.612,1.193-10.596-4.94-13.94-8.373
				c-0.314-0.323,0.242-0.517,0.496-0.304c3.015,2.534,6.264,5.969,10.289,6.775c3.24,0.649,4.249-1.783,4.683-4.438
				c0.358-2.189,1.065-4.77,0.252-6.909c-0.113-0.297-0.018-0.474,0.157-0.559c-1.883-4.909-4.194-9.654-7.48-13.665
				c-2.854-3.483-6.816-6.444-11.377-7.132c-3.106-0.468-6.255,0.535-7.651,3.537c-1.304,2.803-0.252,6.064-0.207,9.028
				c0.005,0.352-0.599,0.108-0.649-0.131C71.494,220.049,69.178,216.72,70.592,213.19z"/>
		</g>
		<path style="fill:#EFB291;" d="M291.373,121.899c-17.349-55.902-79.836-55.212-95.337-54.146
			c-15.501-1.065-77.988-1.756-95.337,54.146c-19.856,63.979,1.324,159.727,48.095,184.436c0,0,21.001,14.535,47.242,14.032
			c26.242,0.503,47.242-14.032,47.242-14.032C290.05,281.626,311.229,185.878,291.373,121.899z"/>
		<path style="fill:#2B1F00;" d="M233.535,180.858c4.882-1.584,9.884-2.821,14.956-3.618c5.029-0.791,10.145-1.165,15.232-0.852
			c4.782,0.294,9.566,1.198,13.993,3.069c2.741,1.158,5.299,2.701,7.565,4.601c-1.116-2.755-2.318-5.403-3.882-7.73
			c-1.661-1.893-3.61-3.518-5.983-4.696c-2.886-1.433-6.017-2.291-9.211-2.775c-4.98-0.262-9.977,0.144-14.9,0.9
			c-4.837,0.744-9.646,1.78-14.292,3.332c-2.295,0.767-4.546,1.678-6.685,2.812c-1.688,0.895-3.341,1.915-4.8,3.158
			c-0.413,0.435-0.818,0.876-1.206,1.333c-1.293,1.524-2.62,3.4-3.19,5.416C225.142,183.869,229.3,182.232,233.535,180.858z"/>
		<path style="fill:#2B1F00;" d="M158.6,180.858c-4.882-1.584-9.884-2.821-14.956-3.618c-5.029-0.791-10.145-1.165-15.232-0.852
			c-4.782,0.294-9.566,1.198-13.993,3.069c-2.741,1.158-5.299,2.701-7.565,4.601c1.116-2.755,2.318-5.403,3.882-7.73
			c1.661-1.893,3.61-3.518,5.983-4.696c2.886-1.433,6.017-2.291,9.211-2.775c4.98-0.262,9.977,0.144,14.9,0.9
			c4.837,0.744,9.646,1.78,14.292,3.332c2.295,0.767,4.546,1.678,6.685,2.812c1.688,0.895,3.341,1.915,4.8,3.158
			c0.413,0.435,0.819,0.876,1.206,1.333c1.293,1.524,2.62,3.4,3.19,5.416C166.993,183.869,162.835,182.232,158.6,180.858z"/>
		<g>
			<path style="fill:#FFFFFF;" d="M234.787,232.454c4.505,0.242,9.048-0.05,13.498-0.662c4.732-0.651,9.419-1.66,13.896-3.111
				c4.677-1.516,9.215-3.597,12.938-6.45c0.143-0.109,0.285-0.221,0.427-0.333c0.348-0.371,0.686-0.75,1.001-1.143
				c0.133-0.815,0.23-1.635,0.278-2.458c0.2-3.453-0.262-6.924-1.215-10.283c-0.934-3.293-2.351-6.473-4.956-9.105
				c-0.734-0.742-1.541-1.392-2.4-1.975c-0.271-0.118-0.538-0.241-0.817-0.349c-9.936-3.838-22.436-1.823-31.251,3.232
				c-2.878,1.651-5.286,3.757-7.139,6.176c-2.496,3.697-3.939,7.825-4.492,12.065c-0.547,4.194-0.339,8.426,0.151,12.623
				C227.9,231.756,231.363,232.27,234.787,232.454z"/>
			<g>
				<g>
					
						<ellipse transform="matrix(0.2816 -0.9595 0.9595 0.2816 -26.7528 393.3026)" style="fill:#92422B;" cx="249.277" cy="214.517" rx="16.898" ry="16.898"/>
					<path style="fill:#1A1716;" d="M261.858,214.675c-0.087,6.949-5.79,12.511-12.739,12.425
						c-6.949-0.087-12.512-5.79-12.425-12.739c0.087-6.949,5.791-12.511,12.739-12.425S261.945,207.726,261.858,214.675z"/>
					<path style="fill:#FFFFFF;" d="M247.743,207.551c-0.034,2.752-2.293,4.955-5.045,4.921c-2.752-0.034-4.955-2.293-4.921-5.045
						c0.035-2.752,2.293-4.955,5.045-4.921C245.575,202.54,247.778,204.799,247.743,207.551z"/>
					<path style="fill:#FFFFFF;" d="M238.734,214.813c-0.01,0.813-0.677,1.463-1.49,1.453c-0.813-0.01-1.463-0.677-1.453-1.49
						c0.01-0.813,0.677-1.463,1.49-1.453C238.093,213.333,238.744,214,238.734,214.813z"/>
				</g>
			</g>
			<path d="M231.959,209.559c1.631-2.192,3.455-4.233,5.547-5.984c4.248-3.557,9.292-5.383,14.741-6.145
				c3.028-0.423,6.164-0.485,9.18,0.069c1.328,0.244,2.636,0.592,3.932,0.983c3.754,0.794,7.527,1.743,11.379,1.781
				c1.82,0.018,3.742-0.169,5.379-1.025c1.018-0.532,1.805-1.297,2.383-2.218c-0.14-0.017-0.3,0.009-0.47,0.093
				c-6.264,3.089-12.874-0.331-18.882-2.384c-5.921-2.023-12.212-3.245-18.473-2.456c-6.024,0.759-11.889,3.483-15.955,8.05
				c-2.29,2.572-4.057,5.606-5.359,8.824c-0.667,2.912-1.059,5.897-1.31,8.841c-0.215,2.51-0.32,5.025-0.372,7.541
				c0.667-2.737,1.66-5.399,2.902-7.898C228.008,214.758,229.809,211.997,231.959,209.559z"/>
			<path style="fill:#6F2F1A;" d="M277.74,219.479c-0.21-0.063-0.476-0.039-0.706,0.126c-1.449,1.037-2.635,2.32-4.059,3.391
				c-1.369,1.03-2.867,1.924-4.42,2.746c-3.096,1.639-6.393,2.999-9.882,3.935c-3.626,0.973-7.348,1.42-11.122,1.749
				c-4.297,0.374-8.641,0.64-12.962,0.433c-1.979-0.095-3.977-0.288-5.883-0.763c-1.946-0.486-3.778-1.298-5.498-2.196
				c-0.249-0.13-0.725,0.154-0.542,0.392c1.997,2.608,5.731,3.579,9.219,3.949c1.382,0.262,2.781,0.46,4.188,0.596
				c4.144,0.402,8.305,0.32,12.445-0.064c7.46-0.69,14.97-2.343,21.132-6.092c3.26-1.983,6.558-4.5,8.492-7.509
				C278.453,219.692,278.151,219.477,277.74,219.479z"/>
		</g>
		<g>
			<path style="fill:#FFFFFF;" d="M156.744,232.454c-4.505,0.242-9.048-0.05-13.498-0.662c-4.732-0.651-9.419-1.66-13.896-3.111
				c-4.677-1.516-9.215-3.597-12.938-6.45c-0.143-0.109-0.285-0.221-0.427-0.333c-0.348-0.371-0.686-0.75-1.001-1.143
				c-0.133-0.815-0.23-1.635-0.278-2.458c-0.2-3.453,0.262-6.924,1.215-10.283c0.934-3.293,2.351-6.473,4.956-9.105
				c0.734-0.742,1.541-1.392,2.4-1.975c0.271-0.118,0.537-0.241,0.817-0.349c9.936-3.838,22.436-1.823,31.251,3.232
				c2.878,1.651,5.286,3.757,7.139,6.176c2.496,3.697,3.939,7.825,4.492,12.065c0.547,4.194,0.34,8.426-0.151,12.623
				C163.632,231.756,160.169,232.27,156.744,232.454z"/>
			<g>
				<g>
					
						<ellipse transform="matrix(0.1984 -0.9801 0.9801 0.1984 -96.217 311.3947)" style="fill:#92422B;" cx="142.255" cy="214.517" rx="16.898" ry="16.898"/>
					
						<ellipse transform="matrix(0.9997 -0.0259 0.0259 0.9997 -5.5036 3.7531)" style="fill:#1A1716;" cx="142.255" cy="214.517" rx="12.583" ry="12.583"/>
					<path style="fill:#FFFFFF;" d="M140.721,207.551c-0.034,2.752-2.293,4.955-5.045,4.921c-2.752-0.034-4.955-2.293-4.921-5.045
						c0.034-2.752,2.293-4.955,5.045-4.921C138.553,202.54,140.756,204.799,140.721,207.551z"/>
					<path style="fill:#FFFFFF;" d="M131.712,214.813c-0.01,0.813-0.677,1.463-1.49,1.453c-0.813-0.01-1.463-0.677-1.453-1.49
						c0.01-0.813,0.677-1.463,1.49-1.453C131.072,213.333,131.722,214,131.712,214.813z"/>
				</g>
			</g>
			<path d="M159.572,209.559c-1.63-2.192-3.455-4.233-5.547-5.984c-4.248-3.557-9.292-5.383-14.741-6.145
				c-3.028-0.423-6.164-0.485-9.18,0.069c-1.328,0.244-2.636,0.592-3.932,0.983c-3.754,0.794-7.527,1.743-11.379,1.781
				c-1.82,0.018-3.742-0.169-5.379-1.025c-1.018-0.532-1.805-1.297-2.383-2.218c0.14-0.017,0.3,0.009,0.47,0.093
				c6.265,3.089,12.874-0.331,18.882-2.384c5.921-2.023,12.212-3.245,18.473-2.456c6.024,0.759,11.889,3.483,15.955,8.05
				c2.29,2.572,4.057,5.606,5.359,8.824c0.667,2.912,1.059,5.897,1.31,8.841c0.214,2.51,0.32,5.025,0.372,7.541
				c-0.667-2.737-1.66-5.399-2.902-7.898C163.523,214.758,161.722,211.997,159.572,209.559z"/>
			<path style="fill:#6F2F1A;" d="M113.791,219.479c0.21-0.063,0.476-0.039,0.706,0.126c1.449,1.037,2.635,2.32,4.059,3.391
				c1.369,1.03,2.868,1.924,4.42,2.746c3.096,1.639,6.393,2.999,9.882,3.935c3.626,0.973,7.348,1.42,11.122,1.749
				c4.297,0.374,8.641,0.64,12.962,0.433c1.979-0.095,3.977-0.288,5.883-0.763c1.946-0.486,3.778-1.298,5.498-2.196
				c0.249-0.13,0.725,0.154,0.543,0.392c-1.998,2.608-5.731,3.579-9.219,3.949c-1.382,0.262-2.781,0.46-4.188,0.596
				c-4.144,0.402-8.305,0.32-12.446-0.064c-7.46-0.69-14.97-2.343-21.132-6.092c-3.26-1.983-6.558-4.5-8.492-7.509
				C113.078,219.692,113.381,219.477,113.791,219.479z"/>
		</g>
		<g>
			<path style="fill:#EF3825;" d="M216.36,275.688c-4.026-0.032-7.923-1.065-11.847-1.849c-1.755-0.351-3.785-0.906-5.555-0.381
				c-0.715,0.212-1.324,0.628-1.807,1.191c-0.192,0.224-0.358,0.466-0.52,0.709c-0.162-0.244-0.327-0.485-0.52-0.709
				c-0.483-0.564-1.092-0.979-1.807-1.191c-1.77-0.525-3.8,0.031-5.555,0.381c-3.924,0.784-7.821,1.817-11.847,1.849
				c-0.357,0.003-0.824,0.396-0.609,0.774c1.004,1.765,1.836,3.634,3.006,5.3c1.162,1.655,2.609,3.121,4.338,4.182
				c1.783,1.095,3.794,1.792,5.84,2.194c1.993,0.391,4.051,0.632,6.082,0.663c0.355,0.005,0.712,0.002,1.071-0.007
				c0.358,0.009,0.716,0.013,1.071,0.007c2.031-0.031,4.088-0.272,6.082-0.663c2.047-0.402,4.058-1.099,5.84-2.194
				c1.729-1.061,3.176-2.527,4.338-4.182c1.17-1.666,2.002-3.535,3.006-5.3C217.184,276.084,216.717,275.691,216.36,275.688z"/>
			<path style="fill:#80190D;" d="M218.645,274.597c-0.312-0.232-0.718-0.18-1.06-0.056c-0.239,0.087-0.452,0.23-0.664,0.367
				c-0.196,0.126-0.392,0.251-0.582,0.387c-0.407,0.29-0.85,0.699-0.992,1.198c-0.492,0.235-1,0.445-1.501,0.65
				c-1.35,0.552-2.732,1.026-4.135,1.425c-2.76,0.786-5.596,1.343-8.446,1.671c-2.9,0.334-5.833,0.482-8.749,0.306
				c-2.906-0.175-5.838-0.564-8.603-1.499c-1.577-0.533-3.114-1.167-4.463-2.158c-0.609-0.447-1.174-0.925-1.855-1.267
				c-0.687-0.345-1.48-0.478-2.237-0.564c-0.447-0.051-0.732,0.567-0.474,0.762c-0.001,0.001-0.003,0.002-0.004,0.003
				c0.005,0.002,0.01,0.004,0.014,0.006c0.024,0.016,0.053,0.029,0.086,0.037c0.556,0.262,1.163,0.368,1.72,0.632
				c0.685,0.324,1.29,0.779,1.986,1.091c0.632,0.283,1.299,0.455,1.953,0.675c0.79,0.267,1.569,0.569,2.36,0.834
				c2.759,0.925,5.615,1.596,8.51,1.908c5.832,0.629,11.768,0.167,17.435-1.345c1.616-0.431,3.204-0.961,4.752-1.595
				c0.813-0.333,1.599-0.721,2.403-1.072c0.247-0.108,0.495-0.214,0.742-0.322c0.409,0.08,0.845-0.138,1.19-0.338
				c0.402-0.232,0.861-0.587,0.916-1.084C218.978,274.988,218.853,274.753,218.645,274.597z"/>
		</g>
		<g>
			<path style="opacity:0.64;fill:#EB936D;" d="M190.352,248.12c-2.654-0.186-5.646-0.623-8.039-1.859
				c0.336,0.673,0.745,1.321,1.234,1.935c3.272,4.109,9.309,6.124,14.799,5.747c2.628-0.18,5.282-0.964,7.341-2.476
				c2.006-1.472,3.249-3.49,3.838-5.713c-1.576,0.557-3.22,0.965-4.868,1.297C200.004,247.991,195.117,248.454,190.352,248.12z"/>
			<path style="opacity:0.64;fill:#EB936D;" d="M201.276,252.371c-2.686-0.224-5.36,0.283-8.051-0.221
				c-2.568-0.481-4.86-1.598-6.934-3.168c-1.505-1.139-3.902-3.149-3.162-5.313c0.35-1.023,1.235-1.842,1.887-2.678
				c0.689-0.883,1.161-1.822,1.632-2.833c1.184-2.542,2.215-5.402,1.809-8.249c-0.012-0.081-0.155-0.015-0.153,0.049
				c0.1,3.086-1.489,5.89-2.88,8.541c-0.607,1.156-1.373,2.073-2.23,3.05c-0.683,0.778-1.424,1.654-1.705,2.673
				c-0.659,2.392,1.302,4.548,2.959,5.985c1.981,1.718,4.437,2.965,6.983,3.575c3.127,0.749,6.776,0.845,9.781-0.398
				C201.654,253.201,201.952,252.428,201.276,252.371z"/>
		</g>
	</g>
	<path style="fill:#664836;" d="M362.97,234.01c-5.057-11.08-12.473-20.882-18.221-31.6c-5.981-11.152-10.611-23.073-12.203-35.691
		c-1.77-14.027-0.611-28.3-0.631-42.389c-0.036-24.258-4.507-48.314-18.915-68.366c-7.241-10.078-16.546-18.442-28.359-22.687
		c-6.592-2.369-13.734-3.541-20.723-2.665c-3.088,0.387-6.038,1.166-8.739,2.733c-0.694,0.402-1.361,0.844-2.016,1.302
		c-1.328-2.02-2.926-3.891-4.723-5.616c-4.885-4.691-10.816-7.995-16.883-10.903c-6.552-3.141-13.362-5.717-20.388-7.579
		c-13.805-3.659-27.892-4.245-41.938-1.714c-11.609,2.092-22.977,5.626-33.745,10.44c-21.201,9.479-40.157,24.013-54.31,42.467
		C74.13,70.934,68.35,81.101,64.137,91.894c-4.505,11.542-6.823,23.545-7.963,35.848c-2.457,26.516-1.64,53.48-7.184,79.585
		c-7.729,14.502-17.141,28.223-26.584,41.505c-3.472,4.883-6.88,9.68-9.501,15.088c-2.37,4.89-4.233,10.019-5.464,15.314
		c-2.324,9.999-2.662,20.802,0.731,30.607c4.085,11.806,13.035,19.54,24.599,23.673c0.68,0.243,2.01-0.763,1.428-1.488
		c-2.772-3.454-6.032-6.507-8.618-10.11c-2.965-4.132-4.805-9.011-5.469-14.045c-0.707-5.359-0.145-10.685,0.749-15.981
		c0.505,2.297,1.092,4.462,1.663,6.381c4.023,13.506,12.622,24.424,24.763,31.561c7.062,4.151,14.766,6.953,22.611,9.217
		c0.935,0.27,2.23-0.97,1.395-1.791c-4.661-4.582-8.981-9.615-12.388-15.19c3.752,2.954,8.207,5.108,13.265,6.287
		c6.908,1.61,14.093,1.499,21.117,0.847c1.451-0.135,3.965-0.407,4.193-2.295c0.284-2.347-4.102-4.722-5.613-5.838
		c-3.26-2.41-6.566-4.726-9.291-7.762c-2.23-2.485-4.17-5.221-5.85-8.104c-3.554-6.097-5.901-12.866-7.26-19.778
		c-1.503-7.64-1.258-15.219-0.351-22.911c0.352-2.986,0.803-5.989,1.419-8.958c0.957,9.387,4.418,18.306,11.345,25.209
		c4.157,4.142,9.323,7.245,14.902,9.051c0.176,0.057,0.475-0.176,0.349-0.364c-1.12-1.666-1.899-3.523-2.988-5.215
		c-1.102-1.712-2.258-3.387-3.388-5.08c-2.361-3.534-4.837-7.153-6.428-11.112c-3.095-7.702-2.927-16.118-2.083-24.235
		c1.549-14.895,7.269-28.837,15.621-41.203c8.344-12.355,19.248-23.153,31.893-31.081c6.86-4.301,14.198-7.209,21.998-9.321
		c7.78-2.107,15.712-3.635,23.408-6.053c6.374-2.002,12.46-4.627,18.203-7.827c-5.057,4.887-10.456,9.371-16.658,12.975
		c-12.108,7.037-26.09,10.845-40.11,10.762c-0.626-0.004-2.103,1.249-1.096,1.754c9.617,4.83,21.579,1.853,31.485-0.448
		c11.539-2.681,22.521-7.24,32.641-13.387c10.208-6.201,19.617-13.789,27.589-22.697c7.719-8.625,13.418-18.234,17.597-28.997
		c0.513-1.322,1.003-2.653,1.468-3.992c0.332,6.654,1.091,13.276,2.501,19.809c3.379,15.654,9.923,31.315,19.593,44.137
		c5.246,6.955,11.536,13.256,19.408,17.138c0.323,0.159,1.123-0.287,0.772-0.663c-7.098-7.612-13.288-16.33-18.015-25.608
		c-0.468-0.918-0.911-1.847-1.342-2.783c1.242,1.85,2.518,3.656,3.791,5.414c8.857,12.238,18.813,24.133,23.604,38.705
		c2.842,8.644,3.464,17.657,1.917,26.617c-0.164,0.949,1.269,0.671,1.634,0.242c3.27-3.838,5.415-8.431,6.876-13.311
		c0.581,9.042,0.334,18.097-1.519,27.102c-3.088,15.011-8.979,29.889-21.031,39.924c-0.331,0.276-1.06,1.254-0.318,1.598
		c9.629,4.478,20.244-3.931,26.516-10.567c1.881-1.991,3.572-4.154,5.08-6.441c0.438,11.679-0.805,23.269-5.774,34.204
		c-3.26,7.173-7.724,13.847-13.211,19.506c-2.638,2.721-5.46,5.274-8.547,7.478c-1.605,1.147-3.278,2.225-5.029,3.138
		c-1.641,0.855-3.329,1.494-4.793,2.652c-0.586,0.464-1.071,1.498-0.104,1.855c8.194,3.024,17.796,1.344,25.89-1.203
		c9.328-2.935,18.166-7.296,26.153-12.942c12.972-9.169,23.484-22.154,28.418-37.311c0.097,1.33,0.161,2.661,0.179,3.995
		c0.049,3.71-0.07,7.706-1.082,11.297c-0.851,3.018-2.38,5.809-2.411,9.009c-0.006,0.58,0.492,0.78,1.002,0.706
		c7.092-1.034,10.304-8.915,11.97-14.977c1.907-6.939,2.707-14.279,2.619-21.469C370.88,257.258,368.068,245.182,362.97,234.01z"/>
	<path style="fill:#523929;" d="M271.697,163.911c-6.551-13.123-11.326-27.043-14.71-41.299
		c-3.754-15.814-6.139-32.371-4.789-48.642c0.62-7.464,2.08-14.92,5.041-21.827c2.987-6.965,7.724-13.564,14.42-17.366
		c2.712-1.54,5.723-2.529,8.822-2.805c-5.384-1.457-11.021-2.053-16.563-1.359c-3.088,0.387-6.038,1.166-8.739,2.733
		c-0.694,0.402-1.361,0.844-2.016,1.301c-1.328-2.02-2.926-3.891-4.723-5.616c-4.885-4.691-10.816-7.995-16.883-10.903
		c-0.547-0.262-1.098-0.515-1.649-0.769c4.478,3.541,8.29,7.817,10.889,13.274c1.941,4.076,3.14,8.52,4.036,12.931
		c0.988,4.861,1.548,9.809,1.788,14.762c0.47,9.699-0.275,19.458-2.251,28.966c-3.423,16.474-10.65,32.072-20.701,45.544
		c-8.069,10.814-17.909,20.282-28.992,27.967c1.669-0.904,3.324-1.835,4.95-2.822c10.208-6.201,19.617-13.789,27.589-22.697
		c7.719-8.625,13.418-18.234,17.597-28.997c0.513-1.322,1.003-2.653,1.468-3.992c0.332,6.655,1.091,13.276,2.502,19.809
		c3.379,15.654,9.923,31.315,19.594,44.137c3.456,4.582,7.369,8.875,11.885,12.385C277.052,173.941,274.232,168.99,271.697,163.911z
		"/>
</g>
</svg>
